<?xml version="1.0" encoding="utf-8"?>
<!-- Generator: Adobe Illustrator 18.1.1, SVG Export Plug-In . SVG Version: 6.00 Build 0)  -->
<svg version="1.1" id="Слой_1" xmlns="http://www.w3.org/2000/svg" xmlns:xlink="http://www.w3.org/1999/xlink" x="0px" y="0px"
	 viewBox="1006 0 914 1080" enable-background="new 1006 0 914 1080" xml:space="preserve">
<rect x="-3098.3" y="-777.2" display="none" fill="#FFFFFF" width="9310.7" height="5260.3"/>
<g>
	<path fill="none" stroke="#FFFFFF" stroke-width="22" stroke-miterlimit="10" d="M1462.7,42.4c-51.2,0-100.7,9.7-145.9,26.5
		c-152.9,58.4-260.8,205-260.8,373.1c0,193.4,138.7,354.3,324.3,391.5c26.5,5.4,54.8,8,83.2,8c3.6,0,7,0,10.7,0l7,196.2
		c177.8-158.2,308.4-284.5,360.5-449.8c18.7-45.2,28.3-94.6,28.3-146.7C1870,220.8,1688,42.4,1462.7,42.4z"/>
</g>
<g>
	<path fill="#FFFFFF" d="M1522.9,494.4h45.3v48.2h-45.3v79.5h-59.6v-79.5h-149.9L1312,506l149.6-242.2h61.3V494.4z M1370.3,494.4h93
		V348.2l-1.5-0.2l-5.7,13.8L1370.3,494.4z"/>
</g>
</svg>
