<?xml version="1.0" encoding="utf-8"?>
<!-- Generator: Adobe Illustrator 18.1.1, SVG Export Plug-In . SVG Version: 6.00 Build 0)  -->
<svg version="1.1" id="Слой_1" xmlns="http://www.w3.org/2000/svg" xmlns:xlink="http://www.w3.org/1999/xlink" x="0px" y="0px"
	 viewBox="0 0 53.5 45.5" enable-background="new 0 0 53.5 45.5" xml:space="preserve">
<path fill="#2AACE3" d="M13.7,9.8c0-0.6,0-0.7,0-0.7c0,0,0,0.1,0,0.1c0,0,0,0,0,0l-3.5-7.4c0,0,0,0,0,0c0,0-0.1,0.2-0.1,0.2
	c0,0,0,0,0,0C9.9,1.8,9.8,1.8,9.7,1.8c-0.2,0-0.3,0.1-0.5,0.1h-6c-0.6,0-1,0.4-1,1s0.4,1,1,1h5.4l3.3,6.3c0.1,0.3,0.3,0.7,0.6,0.8
	l5,20.9h29.3l5.3-22H13.7z M45.3,29.8H19.1l-4.3-18h34.4h0.2L45.3,29.8z"/>
<path fill="#2AACE3" d="M42.2,33.8c-2.8,0-5,2.2-5,5s2.2,5,5,5c2.8,0,5-2.2,5-5S44.9,33.8,42.2,33.8z M42.2,40.8c-1.1,0-2-0.9-2-2
	s0.9-2,2-2c1.1,0,2,0.9,2,2S43.3,40.8,42.2,40.8z"/>
<path fill="#2AACE3" d="M22.2,33.8c-2.8,0-5,2.2-5,5s2.2,5,5,5c2.8,0,5-2.2,5-5S24.9,33.8,22.2,33.8z M22.2,40.8c-1.1,0-2-0.9-2-2
	s0.9-2,2-2c1.1,0,2,0.9,2,2S23.3,40.8,22.2,40.8z"/>
</svg>
