<?xml version="1.0" encoding="utf-8"?>
<!-- Generator: Adobe Illustrator 18.1.1, SVG Export Plug-In . SVG Version: 6.00 Build 0)  -->
<svg version="1.1" id="Слой_1" xmlns="http://www.w3.org/2000/svg" xmlns:xlink="http://www.w3.org/1999/xlink" x="0px" y="0px"
	 viewBox="0 0 53.5 45.5" enable-background="new 0 0 53.5 45.5" xml:space="preserve">
<g>
	<path fill="#2BACE2" d="M16.9,5.7C16.9,6.1,17,7,18.4,7H46c1.4,0,1.7-0.9,1.7-1.2S47.4,4.5,46,4.5H18.4C17,4.5,16.9,5.4,16.9,5.7z"
		/>
	<circle fill="#2BACE2" cx="9.1" cy="5.7" r="2.4"/>
</g>
<g>
	<path fill="#2BACE2" d="M16.9,14.2c0,0.3,0.1,1.2,1.5,1.2H46c1.4,0,1.7-0.9,1.7-1.2c0-0.3-0.3-1.2-1.7-1.2H18.4
		C17,13,16.9,13.9,16.9,14.2z"/>
	<circle fill="#2BACE2" cx="9.1" cy="14.2" r="2.4"/>
</g>
<g>
	<path fill="#2BACE2" d="M16.9,22.8c0,0.3,0.1,1.2,1.5,1.2H46c1.4,0,1.7-0.9,1.7-1.2s-0.3-1.2-1.7-1.2H18.4
		C17,21.5,16.9,22.4,16.9,22.8z"/>
	<circle fill="#2BACE2" cx="9.1" cy="22.7" r="2.4"/>
</g>
<g>
	<path fill="#2BACE2" d="M16.9,31.2c0,0.3,0.1,1.2,1.5,1.2H46c1.4,0,1.7-0.9,1.7-1.2c0-0.3-0.3-1.2-1.7-1.2H18.4
		C17,30,16.9,30.9,16.9,31.2z"/>
	<circle fill="#2BACE2" cx="9.1" cy="31.2" r="2.4"/>
</g>
<g>
	<path fill="#2BACE2" d="M16.9,39.8c0,0.3,0.1,1.2,1.5,1.2H46c1.4,0,1.7-0.9,1.7-1.2s-0.3-1.2-1.7-1.2H18.4
		C17,38.5,16.9,39.4,16.9,39.8z"/>
	<circle fill="#2BACE2" cx="9.1" cy="39.7" r="2.4"/>
</g>
</svg>
