<?xml version="1.0" encoding="utf-8"?>
<!-- Generator: Adobe Illustrator 18.1.1, SVG Export Plug-In . SVG Version: 6.00 Build 0)  -->
<svg version="1.1" id="Слой_1" xmlns="http://www.w3.org/2000/svg" xmlns:xlink="http://www.w3.org/1999/xlink" x="0px" y="0px"
	 viewBox="0 0 53.5 45.5" enable-background="new 0 0 53.5 45.5" xml:space="preserve">
<path fill="#2BACE2" d="M48.9,9.8c-0.1-5-10-8.7-22.1-8.7C14.8,1.2,5,4.8,4.9,9.8H4.7v26h0.2c0,6,9.9,8.6,22,8.6
	c12.1,0,22-2.6,22-8.6h-0.2v-26H48.9z M47.1,18.4c0,2.9-7.7,6.7-20.3,6.7c-12.5,0-20.2-3.7-20.2-6.6c0,0,0,0.3,0,0.3h0v-1.9
	c3,3.1,10.9,5.3,19.9,5.3c9.1,0,17.1-2.2,20.1-5.3v1.9h0.5C47.1,18.8,47.1,18.4,47.1,18.4z M6.7,31.8v-1.7c3,3.1,10.9,5.3,19.9,5.3
	c9.1,0,17.1-2.2,20.1-5.3v1c0,2.9-7.5,7-20.1,7c-12.5,0-20.1-3.7-20.1-6.6C6.5,31.5,6.6,31.8,6.7,31.8L6.7,31.8z M26.6,33.7
	c-12.5,0-20.1-4-20.1-6.9c0,0,0.1,0,0.1,0h0v-1.1c3,3.1,10.9,5.3,19.9,5.3c9.1,0,17.1-2.2,20.1-5.3v1C46.7,29.6,39.2,33.7,26.6,33.7
	z M26.6,29.3c-12.5,0-20.1-3.8-20.1-6.7c0,0,0.1,0.2,0.1,0.2h0v-1.5c3,3.1,10.9,5.3,19.9,5.3c9.1,0,17.1-2.2,20.1-5.3v1
	C46.7,25.2,39.2,29.3,26.6,29.3z M26.6,20.5c-12.5,0-20.1-3.9-20.1-6.8c0,0,0.1,0.1,0.1,0.1h0v-1.3c3,3.1,10.9,5.3,19.9,5.3
	c9.1,0,17.1-2.2,20.1-5.3v1C46.7,16.4,39.2,20.5,26.6,20.5z M26.8,2.1c12.4,0,20.2,4,20.3,6.9h0c0,0,0,0,0,0.1l0,0
	c0,2.9-7.7,6.9-20.3,6.9c-12.5,0-20.2-4-20.2-6.9l0-0.1c0,0,0,0,0,0l0,0C6.8,6.1,14.5,2.1,26.8,2.1z M46.9,35.4
	c0,2.9-7.6,6.9-20.1,6.9c-12.5,0-20.1-4-20.2-6.9l0.1-0.2v-0.7c3,3.1,10.9,5.3,19.9,5.3c9.1,0,17.1-2.2,20.1-5.3v0.7L46.9,35.4z"/>
</svg>
