<?xml version="1.0" encoding="utf-8"?>
<!-- Generator: Adobe Illustrator 18.1.1, SVG Export Plug-In . SVG Version: 6.00 Build 0)  -->
<svg version="1.1" id="Capa_1" xmlns="http://www.w3.org/2000/svg" xmlns:xlink="http://www.w3.org/1999/xlink" x="0px" y="0px"
	 viewBox="-41 165.3 511.6 511.6" enable-background="new -41 165.3 511.6 511.6" xml:space="preserve">
<g>
	<path fill="#8E8E9C" d="M457.2,233.5c-8.9-8.9-19.7-13.4-32.3-13.4H4.7c-12.6,0-23.3,4.5-32.3,13.4c-8.9,8.9-13.4,19.7-13.4,32.3
		v310.6c0,12.6,4.5,23.3,13.4,32.3c8.9,9,19.7,13.4,32.3,13.4h420.3c12.6,0,23.3-4.5,32.3-13.4c8.9-8.9,13.4-19.7,13.4-32.3V265.8
		C470.6,253.2,466.2,242.4,457.2,233.5z M434.1,576.4c0,2.5-0.9,4.6-2.7,6.4c-1.8,1.8-3.9,2.7-6.4,2.7H4.7c-2.5,0-4.6-0.9-6.4-2.7
		c-1.8-1.8-2.7-3.9-2.7-6.4V357.1C1.6,364,8.2,370.3,15.2,376c51,39.2,91.6,71.4,121.6,96.5c9.7,8.2,17.6,14.6,23.7,19.1
		c6.1,4.6,14.3,9.2,24.7,13.8c10.4,4.7,20.1,7,29.3,7h0.3h0.3c9.1,0,18.9-2.3,29.3-7c10.4-4.7,18.6-9.3,24.7-13.8
		c6.1-4.6,14-10.9,23.7-19.1c30.1-25.1,70.6-57.3,121.6-96.5c7-5.7,13.6-12,19.7-18.8V576.4L434.1,576.4z M434.1,273.2v3.1
		c0,11.2-4.4,23.7-13.3,37.5c-8.9,13.8-18.4,24.8-28.7,33c-36.7,28.9-74.9,59.1-114.5,90.5c-1.1,1-4.5,3.8-10,8.4
		c-5.5,4.7-9.9,8.2-13.1,10.7c-3.2,2.5-7.5,5.5-12.7,9c-5.2,3.5-10,6.1-14.4,7.9c-4.4,1.7-8.5,2.6-12.3,2.6h-0.3h-0.3
		c-3.8,0-7.9-0.9-12.3-2.6c-4.4-1.7-9.2-4.3-14.4-7.9c-5.2-3.5-9.5-6.5-12.7-9c-3.2-2.5-7.6-6-13.1-10.7c-5.5-4.7-8.9-7.5-10-8.4
		c-39.6-31.4-77.8-61.6-114.5-90.5c-28-22.1-42-49.1-42-81.1c0-2.5,0.9-4.6,2.7-6.4c1.8-1.8,3.9-2.7,6.4-2.7h420.3
		c1.5,0.9,2.9,1.1,4,0.7c1.1-0.4,2,0.3,2.6,2.1c0.6,1.8,1.1,2.7,1.6,2.6c0.5-0.1,0.8,1.1,0.9,3.6c0.1,2.5,0.1,3.7,0.1,3.7
		L434.1,273.2L434.1,273.2z"/>
</g>
</svg>
