<?xml version="1.0" encoding="utf-8"?>
<!-- Generator: Adobe Illustrator 18.1.1, SVG Export Plug-In . SVG Version: 6.00 Build 0)  -->
<svg version="1.1" id="Слой_1" xmlns="http://www.w3.org/2000/svg" xmlns:xlink="http://www.w3.org/1999/xlink" x="0px" y="0px"
	 viewBox="0 0 53.5 45.5" enable-background="new 0 0 53.5 45.5" xml:space="preserve">
<g>
	<path fill="none" stroke="#2BACE2" stroke-width="2" stroke-miterlimit="10" d="M44.3,18.5c0-1.1-0.9-1.9-1.9-1.9
		c-1.1,0-1.9,0.9-1.9,1.9c0,0.5,0,13.8,0,14.3c0,1.1,0.9,1.9,1.9,1.9c1.1,0,1.9-0.9,1.9-1.9C44.3,32.3,44.3,18.9,44.3,18.5z"/>
	<path fill="none" stroke="#2BACE2" stroke-width="2" stroke-miterlimit="10" d="M29.1,44.2c1.1,0,1.9-0.9,1.9-1.9
		c0-1.1-0.9-1.9-1.9-1.9c-0.5,0-4.3,0-4.8,0c-1.1,0-1.9,0.9-1.9,1.9c0,1.1,0.9,1.9,1.9,1.9C24.8,44.2,28.6,44.2,29.1,44.2z"/>
	<path fill="none" stroke="#2BACE2" stroke-width="2" stroke-miterlimit="10" d="M10.1,17.5c0-8.9,7.2-16.2,16.2-16.2
		s16.2,7.2,16.2,16.2"/>
	<path fill="none" stroke="#2BACE2" stroke-width="2" stroke-miterlimit="10" d="M44.3,18.5c2.6,0,4.8,3.2,4.8,7.1
		c0,3.9-2.1,7.1-4.8,7.1"/>
	<path fill="none" stroke="#2BACE2" stroke-width="2" stroke-miterlimit="10" d="M8.2,18.5c0-1.1,0.9-1.9,1.9-1.9s1.9,0.9,1.9,1.9
		c0,0.5,0,13.8,0,14.3c0,1.1-0.9,1.9-1.9,1.9s-1.9-0.9-1.9-1.9C8.2,32.3,8.2,18.9,8.2,18.5z"/>
	<path fill="none" stroke="#2BACE2" stroke-width="2" stroke-miterlimit="10" d="M8.2,18.5c-2.6,0-4.8,3.2-4.8,7.1
		c0,3.9,2.1,7.1,4.8,7.1"/>
	<path fill="none" stroke="#2BACE2" stroke-width="2" stroke-miterlimit="10" d="M42.4,34.7c0,4.8-2.9,7.6-7.6,7.6H31"/>
</g>
</svg>
