<?xml version="1.0" encoding="utf-8"?>
<!-- Generator: Adobe Illustrator 18.1.1, SVG Export Plug-In . SVG Version: 6.00 Build 0)  -->
<svg version="1.1" id="Слой_1" xmlns="http://www.w3.org/2000/svg" xmlns:xlink="http://www.w3.org/1999/xlink" x="0px" y="0px"
	 viewBox="0 0 53.5 45.5" enable-background="new 0 0 53.5 45.5" xml:space="preserve">
<path fill="#2BACE2" d="M26.7,0.6c-12.2,0-22.1,9.9-22.1,22.1s9.9,22.1,22.1,22.1S48.9,35,48.9,22.8C48.9,10.5,39,0.6,26.7,0.6z
	 M26.8,42.8c-11.1,0-20.1-9-20.1-20.1c0-11.1,9-20.1,20.1-20.1c11.1,0,20.1,9,20.1,20.1S37.9,42.8,26.8,42.8z"/>
<path fill="#2BACE2" d="M26.8,16.4c-0.6,0-1.2,0.4-1.2,1.2v16.8c0,0.8,0.5,1.1,1.2,1.1c0.6,0,1.2-0.3,1.2-1.1V17.6
	C27.9,16.8,27.4,16.4,26.8,16.4z"/>
<circle fill="#2BACE2" cx="26.8" cy="11.9" r="2.2"/>
</svg>
