<?xml version="1.0" encoding="utf-8"?>
<!-- Generator: Adobe Illustrator 18.1.1, SVG Export Plug-In . SVG Version: 6.00 Build 0)  -->
<svg version="1.1" id="Слой_1" xmlns="http://www.w3.org/2000/svg" xmlns:xlink="http://www.w3.org/1999/xlink" x="0px" y="0px"
	 viewBox="78 157.2 438.7 21.3" enable-background="new 78 157.2 438.7 21.3" xml:space="preserve">
<rect x="-1565.6" y="83.7" display="none" fill="#FFFFFF" width="3272" height="1848.6"/>
<path fill="#FFFFFF" d="M-1077.3,1610.6c-11.2,7.5-25.2,11.2-41.3,11.2c-21.4,0-38.8-7.5-51.5-22.7c-13.7-16.1-19.9-36.3-19.9-61.2
	c0-26.4,7.5-47.5,22.7-64c14.9-16.5,33.8-25.2,56.5-25.2c11.2,0,23.9,2.5,35.1,7.5v16.5c-11.2-7.5-23.9-11.2-36.3-11.2
	c-18.9,0-32.6,7.5-45,21.4c-11.2,13.7-17.7,32.6-17.7,54c0,21.4,5,38.8,14.9,51.5c9.9,12.4,23.9,20.2,41.3,20.2
	c16.5,0,30.1-3.7,41.3-12.4V1610.6L-1077.3,1610.6z M-976.7,1621.7c-22.7,0-41.3-7.5-54-23.9c-13.7-16.5-20.2-36.3-20.2-61.5
	c0-27.6,7.5-49.1,21.4-64c13.7-14.9,32.6-23.9,55.3-23.9c22.7,0,40.1,7.5,52.8,22.7c12.4,14.9,18.9,36.3,18.9,64
	c0,25.2-6.2,46.3-20.2,62.7C-936.6,1614.3-954.3,1621.7-976.7,1621.7L-976.7,1621.7z M-975.5,1462.4c-18.9,0-32.6,6.2-43.8,20.2
	c-11.2,12.4-16.5,31.4-16.5,55.3c0,21.4,5,38.8,16.5,52.8c11.2,12.4,25.2,20.2,43.8,20.2c18.9,0,33.8-6.2,43.8-18.9
	c9.9-12.4,14.9-31.4,14.9-54c0-23.9-5-41.3-14.9-54C-942.9,1469-958.1,1462.4-975.5,1462.4L-975.5,1462.4z M-758.7,1618v-96.6
	c0-40.1-13.7-60.2-40.1-60.2c-14.9,0-27.6,6.2-37.6,17.7c-9.9,11.2-14.9,26.4-14.9,43.8v95.3h-12.4v-165.5h13.7v30.1l0,0
	c11.2-22.7,28.9-33.8,54-33.8c16.5,0,30.1,6.2,38.8,17.7c8.7,11.2,13.7,28.9,13.7,51.5v100.3h-15.2V1618z M-635.7,1615.5
	c-7.5,3.7-13.7,5-20.2,5c-22.7,0-35.1-14.9-35.1-43.8v-111.5h-27.6v-13.7h27.6V1409c2.5-1.2,5-1.2,7.5-2.5s5-1.2,7.5-2.5v47.5h41.3
	v13.7h-41.3v109c0,11.2,1.2,20.2,5,25.2c3.7,5,8.7,7.5,17.7,7.5c6.2,0,12.4-2.5,18.9-6.2v14.9H-635.7z M-511.5,1618v-32.6l0,0
	c-5,11.2-12.4,20.2-21.4,27.6c-9.9,6.2-20.2,9.9-31.4,9.9c-14.9,0-26.4-5-35.1-13.7c-8.7-8.7-12.4-20.2-12.4-33.8
	c0-28.9,17.7-46.3,54-52.8l47.5-7.5c0-35.1-12.4-52.8-37.6-52.8c-17.7,0-33.8,7.5-50.3,22.7v-17.7c6.2-5,13.7-8.7,23.9-12.4
	c9.9-3.7,18.9-5,27.6-5c16.5,0,28.9,5,37.6,16.5c8.7,9.9,13.7,26.4,13.7,46.3v107.8h-16.5v-2.5H-511.5z M-554.1,1535.4
	c-16.5,2.5-27.6,6.2-35.1,12.4c-6.2,5-9.9,14.9-9.9,27.6c0,9.9,2.5,17.7,8.7,23.9c6.2,6.2,14.9,9.9,26.4,9.9
	c14.9,0,27.6-6.2,37.6-17.7c9.9-11.2,14.9-27.6,14.9-45v-16.5L-554.1,1535.4L-554.1,1535.4z M-348.5,1610.6
	c-11.2,7.5-25.2,11.2-41.3,11.2c-21.4,0-38.8-7.5-51.5-22.7c-12.4-14.9-20.2-35.1-20.2-60.2c0-26.4,7.5-47.5,22.7-64
	c14.9-16.5,33.8-25.2,56.5-25.2c11.2,0,23.9,2.5,35.1,7.5v16.5c-11.2-7.5-23.9-11.2-36.3-11.2c-18.9,0-32.6,7.5-45,21.4
	c-11.2,13.7-17.7,32.6-17.7,54c0,21.4,5,38.8,14.9,51.5c9.9,12.4,23.9,20.2,41.3,20.2c16.5,0,28.9-5,41.3-13.7L-348.5,1610.6
	L-348.5,1610.6z M-249.4,1615.5c-7.5,3.7-13.7,5-20.2,5c-22.7,0-35.1-14.9-35.1-43.8v-111.5h-27.6v-13.7h27.6V1409
	c2.5-1.2,5-1.2,7.5-2.5c2.5-1.2,5-1.2,7.5-2.5v47.5h40.1v13.7h-41.3v109c0,11.2,1.2,20.2,5,25.2c3.7,5,8.7,7.5,17.7,7.5
	c6.2,0,12.4-2.5,18.9-6.2L-249.4,1615.5L-249.4,1615.5z M-31.1,1610.6c-11.2,7.5-25.2,11.2-41.3,11.2c-21.4,0-38.8-7.5-51.5-22.7
	c-12.4-14.9-20.2-35.1-20.2-60.2c0-26.4,7.5-47.5,22.7-64c14.9-16.5,33.8-25.2,56.5-25.2c11.2,0,23.9,2.5,35.1,7.5v16.5
	c-11.2-7.5-23.9-11.2-36.3-11.2c-18.9,0-32.6,7.5-45,21.4c-11.2,13.7-17.7,32.6-17.7,54c0,21.4,5,38.8,14.9,51.5
	c9.9,12.4,23.9,20.2,41.3,20.2c16.5,0,28.9-5,41.3-13.7L-31.1,1610.6L-31.1,1610.6z M10.2,1536.7c0,22.7,5,40.1,14.9,52.8
	c9.9,12.4,23.9,18.9,41.3,18.9s35.1-6.2,51.5-20.2v16.5c-16.5,12.4-33.8,18.9-54,18.9s-36.3-7.5-49.1-22.7
	c-12.4-14.9-18.9-36.3-18.9-65.2c0-23.9,6.2-43.8,20.2-61.5c12.4-16.5,30.1-25.2,50.3-25.2c18.9,0,33.8,7.5,45,21.4
	c9.9,14.9,14.9,33.8,14.9,59v6.2H9.5v0.9H10.2z M110.5,1522.7c0-18.9-5-33.8-12.4-43.8c-7.5-9.9-18.9-16.5-33.8-16.5
	s-26.4,5-36.3,14.9c-9.9,9.9-14.9,25.2-17.7,45h100.3V1522.7z M269.8,1618v-96.6c0-40.1-13.7-60.2-40.1-60.2
	c-14.9,0-27.6,6.2-37.6,17.7c-9.9,11.2-14.9,26.4-14.9,43.8v95.3h-12.4v-165.5h13.7v30.1l0,0c11.2-22.7,28.9-33.8,54-33.8
	c16.5,0,30.1,6.2,38.8,17.7c8.7,11.2,13.7,28.9,13.7,51.5v100.3h-15.2V1618z M392.7,1615.5c-7.5,3.7-13.7,5-20.2,5
	c-22.7,0-35.1-14.9-35.1-43.8v-111.5h-27.6v-13.7h27.6V1409c2.5-1.2,5-1.2,7.5-2.5c2.5-1.2,5-1.2,7.5-2.5v47.5h41.3v13.7h-41.3v109
	c0,11.2,1.2,20.2,5,25.2c3.7,5,8.7,7.5,17.7,7.5c6.2,0,12.4-2.5,18.9-6.2v14.9H392.7z M427.8,1536.7c0,22.7,5,40.1,14.9,52.8
	c9.9,12.4,23.9,18.9,41.3,18.9c17.7,0,35.1-6.2,51.5-20.2v16.5c-16.5,12.4-33.8,18.9-54,18.9c-20.2,0-36.3-7.5-49.1-22.7
	c-12.4-14.9-18.9-36.3-18.9-65.2c0-23.9,6.2-43.8,20.2-61.5c12.4-16.5,30.1-25.2,50.3-25.2c18.9,0,33.8,7.5,45,21.4
	c9.9,14.9,14.9,33.8,14.9,59v6.2H427.8V1536.7z M528.1,1522.7c0-18.9-5-33.8-12.4-43.8c-7.5-9.9-18.9-16.5-33.8-16.5
	c-14.9,0-26.4,5-36.3,14.9s-14.9,25.2-17.7,45h100.3V1522.7z M656.1,1469c-5-3.7-9.9-5-16.5-5c-12.4,0-22.7,6.2-31.4,20.2
	s-12.4,32.6-12.4,57.8v77.6h-13.7v-166.8h13.7v36.3h1.2c3.7-12.4,8.7-22.7,17.7-28.9c7.5-7.5,16.5-9.9,26.4-9.9
	c6.2,0,11.2,1.2,14.9,2.5L656.1,1469L656.1,1469z"/>
<g>
	<path fill="none" stroke="#8E8E9C" stroke-miterlimit="10" d="M289.8,166.8c0-2.4,1.5-4.5,3.7-5.3c-0.7-0.3-1.4-0.4-2.1-0.4
		c-3.2,0-5.8,2.6-5.8,5.7c0,3.1,2.6,5.7,5.8,5.7c0.1,0,0.1,0,0.2,0l0.1,2.8c1.1-1,2-2,2.7-2.9C291.8,171.8,289.8,169.5,289.8,166.8z
		"/>
	<path fill="none" stroke="#8E8E9C" stroke-miterlimit="10" d="M293.7,166.8c0-2.5,1.7-4.7,3.9-5.5c-0.6-0.2-1.3-0.3-1.9-0.3
		c-0.7,0-1.5,0.1-2.1,0.4c-2.2,0.8-3.7,2.9-3.7,5.3c0,2.7,2,5,4.6,5.6c0.4,0.1,0.8,0.1,1.3,0.1c0.1,0,0.1,0,0.2,0l0.1,2.8
		c1-1,1.9-1.9,2.6-2.8C295.8,172.1,293.7,169.7,293.7,166.8z"/>
	<path fill="none" stroke="#8E8E9C" stroke-miterlimit="10" d="M297.9,166.8c0-2.4,1.6-4.5,3.8-5.4c-0.7-0.3-1.4-0.4-2.1-0.4
		c-0.7,0-1.3,0.1-1.9,0.3c-2.3,0.8-3.9,2.9-3.9,5.5c0,2.9,2.1,5.2,4.9,5.7c0.3,0.1,0.7,0.1,1,0.1c0.1,0,0.1,0,0.2,0l0.1,2.8
		c1.1-1,2-2,2.8-3C299.9,172,297.9,169.6,297.9,166.8z"/>
	<path fill="none" stroke="#8E8E9C" stroke-miterlimit="10" d="M303.8,161.1c-0.7,0-1.5,0.1-2.1,0.4c-2.2,0.8-3.8,3-3.8,5.4
		c0,2.8,2,5.1,4.7,5.7c0.4,0.1,0.8,0.1,1.2,0.1c0.1,0,0.1,0,0.2,0l0.1,2.8c2.6-2.3,4.5-4.1,5.2-6.5c0.3-0.7,0.4-1.4,0.4-2.1
		C309.7,163.7,307,161.1,303.8,161.1z"/>
</g>
<path fill="#FFFFFF" d="M-1044.7,986.1h32.6l144.1,339.7h-47.5l-42.5-100.3h-137.9l-40.1,100.3h-46.6L-1044.7,986.1L-1044.7,986.1z
	 M-976.7,1183l-52.8-121.7L-1077,1183H-976.7L-976.7,1183z M-831.4,1325.8V988.6h80.1c32.6,0,59,8.7,77.6,25.2
	c18.6,16.5,28.9,40.1,28.9,68.9c0,20.2-5,36.3-13.7,51.5c-8.7,13.7-22.7,25.2-40.1,32.6c9.9,7.5,20.2,16.5,30.1,28.9
	c9.9,12.4,23.9,33.8,41.3,64c11.2,18.9,20.2,33.8,26.4,43.8l17.7,23.9h-55.3l-12.4-23.9c0-1.2-1.2-2.5-2.5-3.7l-9.9-13.7l-13.7-25.2
	l-14.9-26.4c-9.9-13.7-18.9-25.2-26.4-32.6c-7.5-8.7-14.9-13.7-21.4-17.7c-6.5-4-17.7-5-32.6-5h-12.4v146.9h-46.9V1325.8z
	 M-771.1,1029.9h-13.7v106.5h17.7c23.9,0,38.8-2.5,47.5-6.2c8.7-3.7,14.9-9.9,20.2-18.9c5-8.7,7.5-17.7,7.5-28.9
	c0-9.9-2.5-20.2-7.5-28.9c-5-8.7-12.4-14.9-22.7-18.9C-732.3,1030.5-748.5,1029.9-771.1,1029.9L-771.1,1029.9z M-268.4,1248.2v52.8
	c-33.8,20.2-72.7,28.9-118,28.9c-36.3,0-66.5-7.5-91.6-22.7c-25.2-14.9-45-36.3-60.2-62.7c-14.9-26.4-21.4-55.3-21.4-86.6
	c0-49.1,16.5-90.4,50.3-124.2c33.8-33.8,75.1-50.3,124.2-50.3c33.8,0,71.4,8.7,112.7,27.6v51.5c-37.6-22.7-75.1-33.8-110.2-33.8
	c-36.3,0-67.7,12.4-91.6,36.3c-23.9,23.9-36.3,55.3-36.3,91.6c0,37.6,12.4,67.7,36.3,91.6s55.3,36.3,91.6,36.3
	C-343.5,1284.5-306,1272.1-268.4,1248.2L-268.4,1248.2z M-211.9,988.6h183.2v42.5h-136.6v102.8h131.7v42.5h-131.7v105.3h140.4v42.5
	h-186.9V988.6z"/>
<path d="M-1095.2,1782.9l-6.2-16.5h-22.7l-6.2,16.5h-3.7l20.2-54h3.7l20.2,52.8L-1095.2,1782.9L-1095.2,1782.9z M-1111.6,1739.1
	c0-1.2,0-1.2-1.2-2.5v-1.2l0,0c0,1.2-1.2,2.5-1.2,3.7l-8.7,25.2h20.2L-1111.6,1739.1L-1111.6,1739.1z M-1025,1782.9v-22.7
	c0-8.7-3.7-13.7-9.9-13.7c-3.7,0-6.2,1.2-8.7,3.7s-3.7,6.2-3.7,9.9v21.4h-3.7v-37.6h3.7v7.5l0,0c2.5-5,7.5-7.5,12.4-7.5
	c3.7,0,7.5,1.2,9.9,3.7c2.5,2.5,3.7,6.2,3.7,11.2v22.7L-1025,1782.9L-1025,1782.9z M-970,1790.4c-1.2,3.7-2.5,6.2-5,7.5
	c-1.2,1.2-3.7,2.5-6.2,2.5c-1.2,0-2.5,0-2.5,0v-3.4c1.2,0,2.5,0,2.5,0c2.5,0,5-2.5,7.5-6.2l3.7-8.7l-14.9-37.6h3.7l11.2,31.4
	c0,1.2,0,1.2,0,1.2v1.2l0,0l1.2-2.5l12.4-31.4h3.7L-970,1790.4L-970,1790.4z M-898.3,1781.7c-1.2,1.2-3.7,1.2-5,1.2
	c-5,0-8.7-3.7-8.7-9.9v-25.2h-6.2v-2.5h6.2v-9.9h1.2h1.2v11.2h9.9v2.5h-9.9v25.2c0,2.5,0,5,1.2,6.2s2.5,1.2,3.7,1.2s2.5,0,5-1.2
	L-898.3,1781.7L-898.3,1781.7z M-858.2,1735.4c-1.2,0-1.2,0-2.5-1.2c0,0-1.2-1.2-1.2-2.5c0-1.2,0-1.2,1.2-2.5c0,0,1.2-1.2,2.5-1.2
	c1.2,0,1.2,0,2.5,1.2c0,0,1.2,1.2,1.2,2.5c0,1.2,0,1.2-1.2,2.5C-857,1734.1-857,1735.4-858.2,1735.4L-858.2,1735.4z M-859.5,1782.9
	v-37.6h3.7v37.6H-859.5L-859.5,1782.9z M-765.4,1781.7V1759c0-5,0-7.5-2.5-9.9c-1.2-2.5-3.7-2.5-7.5-2.5c-2.5,0-5,1.2-7.5,3.7
	c-2.5,2.5-3.7,6.2-3.7,9.9v22.7h-3.7v-22.7c0-8.7-3.7-12.4-9.9-12.4c-2.5,0-6.2,1.2-7.5,3.7c-2.5,2.5-2.5,6.2-2.5,9.9v21.4h-3.7
	v-37.6h3.7v6.2l0,0c2.5-5,6.2-7.5,11.2-7.5c2.5,0,5,1.2,7.5,2.5c2.5,1.2,3.7,3.7,3.7,6.2c1.2-2.5,2.5-5,5-6.2c2.5-1.2,5-2.5,7.5-2.5
	c8.7,0,12.4,5,12.4,14.9v23.9L-765.4,1781.7L-765.4,1781.7z M-717.9,1763c0,5,1.2,8.7,3.7,12.4c2.5,2.5,6.2,5,9.9,3.7
	c3.7,0,8.7-1.2,12.4-5v3.7c-3.7,2.5-8.7,3.7-13.7,3.7s-8.7-1.2-11.2-5c-2.5-3.7-5-8.7-5-14.9c0-5,1.2-9.9,5-13.7
	c3.7-3.7,7.5-6.2,12.4-6.2s8.7,1.2,11.2,5c2.5,3.7,3.7,7.5,3.7,13.7v1.2L-717.9,1763L-717.9,1763z M-694,1760.2
	c0-3.7-1.2-7.5-3.7-9.9s-5-3.7-7.5-3.7c-3.7,0-6.2,1.2-8.7,3.7s-3.7,6.2-3.7,9.9H-694L-694,1760.2z M-589.9,1781.7l-7.5-14.9
	c-1.2-3.7-2.5-5-5-6.2c-1.2-1.2-3.7-1.2-5-1.2h-6.2v23.9h-3.7v-52.8h14.9c5,0,8.7,1.2,11.2,3.7c2.5,2.5,3.7,6.2,3.7,9.9
	c0,3.7-1.2,7.5-3.7,9.9c-2.5,2.5-5,3.7-8.7,5l0,0c2.5,1.2,3.7,3.7,6.2,7.5l7.5,17.7L-589.9,1781.7L-589.9,1781.7z M-613.8,1731.7
	v22.7h9c3.7,0,7.5-1.2,9.9-3.7c2.5-2.5,3.7-5,3.7-8.7s-1.2-6.2-3.7-7.5c-2.5-2.5-5-2.5-8.7-2.5L-613.8,1731.7L-613.8,1731.7z
	 M-543.4,1763c0,5,1.2,8.7,3.7,12.4c2.5,2.5,6.2,3.7,9.9,3.7s8.7-1.2,12.4-5v3.7c-3.7,2.5-8.7,3.7-13.7,3.7s-8.7-1.2-11.2-5
	c-2.5-3.7-5-8.7-5-14.9c0-5,1.2-9.9,5-13.7c3.7-3.7,7.5-6.2,12.4-6.2c5,0,8.7,1.2,11.2,5c2.5,3.7,3.7,7.5,3.7,13.7v1.2L-543.4,1763
	L-543.4,1763z M-519.8,1759c0-3.7-1.2-7.5-3.7-9.9c-2.5-2.5-5-3.7-7.5-3.7c-3.7,0-6.2,1.2-8.7,3.7c-2.5,2.5-3.7,6.2-3.7,9.9H-519.8
	L-519.8,1759z M-474.4,1780.4v-56.5h3.7v56.5H-474.4L-474.4,1780.4z M-426.9,1732.9c-1.2,0-1.2,0-2.5-1.2c0,0-1.2-1.2-1.2-2.5
	c0-1.2,0-1.2,1.2-2.5c0,0,1.2-1.2,2.5-1.2c1.2,0,1.2,0,2.5,1.2c0,0,1.2,1.2,1.2,2.5c0,1.2,0,1.2-1.2,2.5
	C-425.7,1732.9-425.7,1732.9-426.9,1732.9L-426.9,1732.9z M-428.2,1780.4v-37.6h3.7v37.6H-428.2L-428.2,1780.4z M-358,1780.4v-7.5
	l0,0c-1.2,2.5-2.5,5-5,6.2s-5,2.5-7.5,2.5c-3.7,0-6.2-1.2-8.7-2.5c-2.5-2.5-3.7-5-3.7-7.5c0-6.2,3.7-9.9,12.4-12.4l11.2-1.2
	c0-8.7-2.5-12.4-8.7-12.4c-3.7,0-8.7,1.2-12.4,5v-3.7c1.2-1.2,3.7-2.5,6.2-2.5c2.5-1.2,5-1.2,6.2-1.2c3.7,0,7.5,1.2,8.7,3.7
	c2.5,2.5,3.7,6.2,3.7,9.9v25.2L-358,1780.4L-358,1780.4z M-369.2,1761.8c-3.7,0-6.2,1.2-8.7,2.5c-1.2,1.2-2.5,3.7-2.5,6.2
	c0,2.5,1.2,3.7,2.5,5c1.2,1.2,3.7,2.5,6.2,2.5c3.7,0,6.2-1.2,8.7-3.7c2.5-2.5,3.7-6.2,3.7-9.9v-3.7L-369.2,1761.8L-369.2,1761.8z
	 M-308.9,1773L-308.9,1773v6.2h-3.7v-56.5h3.7v26.4l0,0c1.2-2.5,3.7-5,6.2-6.2c2.5-1.2,5-2.5,8.7-2.5c5,0,8.7,1.2,11.2,5
	c2.5,3.7,3.7,7.5,3.7,13.7s-1.2,11.2-5,14.9c-2.5,3.7-7.5,6.2-12.4,6.2C-301.5,1781.7-306.4,1779.2-308.9,1773L-308.9,1773z
	 M-308.9,1759v5c0,3.7,1.2,7.5,3.7,9.9c2.5,2.5,5,3.7,9.9,3.7c3.7,0,7.5-1.2,9.9-5c2.5-3.7,3.7-7.5,3.7-12.4s-1.2-8.7-3.7-11.2
	c-2.5-2.5-5-3.7-8.7-3.7c-5,0-7.5,1.2-9.9,5C-307.7,1751.5-308.9,1755.3-308.9,1759L-308.9,1759z M-238.7,1780.4v-56.5h3.7v56.5
	H-238.7L-238.7,1780.4z M-191.2,1760.2c0,5,1.2,8.7,3.7,12.4c2.5,2.5,6.2,3.7,9.9,3.7s8.7-1.2,12.4-5v3.7c-3.7,2.5-8.7,3.7-13.7,3.7
	c-5,0-8.7-1.2-11.2-5c-2.5-3.7-5-8.7-5-14.9c0-5,1.2-9.9,5-13.7c3.7-3.7,7.5-6.2,12.4-6.2s8.7,1.2,11.2,5c2.5,3.7,3.7,7.5,3.7,13.7
	v1.2L-191.2,1760.2L-191.2,1760.2z M-166.1,1757.7c0-3.7-1.2-7.5-3.7-9.9c-2.5-2.5-5-3.7-7.5-3.7c-3.7,0-6.2,1.2-8.7,3.7
	c-2.5,2.5-3.7,6.2-3.7,9.9H-166.1L-166.1,1757.7z M-54.3,1777.9c-3.7,1.2-8.7,2.5-13.7,2.5c-7.5,0-13.7-2.5-17.7-7.5
	c-5-5-7.5-11.2-7.5-18.9c0-8.7,2.5-14.9,7.5-21.4c5-5,11.2-7.5,18.9-7.5c3.7,0,7.5,1.2,11.2,2.5v3.7c-3.7-1.2-7.5-2.5-11.2-2.5
	c-6.2,0-12.4,2.5-16.5,6.2c-3.7,5-6.2,9.9-6.2,17.7s2.5,12.4,6.2,17.7c3.7,3.7,8.7,6.2,14.9,6.2c5,0,8.7-1.2,13.7-2.5v3.7H-54.3z
	 M3.2,1780.4c-5,0-9.9-1.2-13.7-5c-3.7-3.7-5-8.7-5-13.7c0-6.2,1.2-11.2,5-14.9c3.7-3.7,7.5-5,13.7-5c5,0,9.9,1.2,12.4,5
	c3.7,3.7,5,8.7,5,14.9c0,6.2-1.2,11.2-5,13.7C13.4,1777.9,8.1,1780.4,3.2,1780.4L3.2,1780.4z M3.2,1742.8c-5,0-7.5,1.2-11.2,5
	c-2.5,2.5-3.7,7.5-3.7,12.4c0,5,1.2,8.7,3.7,12.4c2.5,2.5,6.2,5,11.2,5s7.5-1.2,9.9-5c2.5-2.5,3.7-7.5,3.7-12.4
	c0-5-1.2-9.9-3.7-12.4C10.9,1744.1,8.1,1742.8,3.2,1742.8L3.2,1742.8z M110,1779.2v-22.7c0-5-1.2-7.5-2.5-9.9
	c-1.2-2.5-3.7-2.5-7.5-2.5c-2.5,0-5,1.2-7.5,3.7c-2.5,2.5-3.7,6.2-3.7,9.9v22.7h-3.7v-22.7c0-8.7-3.7-12.4-9.9-12.4
	c-2.5,0-6.2,1.2-7.5,3.7c-2.5,2.5-2.5,6.2-2.5,9.9v21.4h-3.7v-37.6h3.7v6.2l0,0c2.5-5,6.2-7.5,11.2-7.5c2.5,0,5,1.2,7.5,2.5
	c2.5,1.2,3.7,3.7,3.7,6.2c1.2-2.5,2.5-5,5-6.2c2.5-1.2,5-2.5,7.5-2.5c17.7,0,12.4,26.4,12.4,38.8L110,1779.2L110,1779.2z
	 M203.8,1777.9v-22.7c0-5-1.2-7.5-2.5-9.9c-1.2-2.5-3.7-2.5-7.5-2.5c-2.5,0-5,1.2-7.5,3.7c-2.5,2.5-3.7,6.2-3.7,9.9v22.7h-3.7v-22.7
	c0-8.7-3.7-12.4-9.9-12.4c-2.5,0-6.2,1.2-7.5,3.7c-2.5,2.5-2.5,6.2-2.5,9.9v21.4h-3.7v-37.6h3.7v6.2l0,0c2.5-5,6.2-7.5,11.2-7.5
	c2.5,0,5,1.2,7.5,2.5c2.5,1.2,3.7,3.7,3.7,6.2c1.2-2.5,2.5-5,5-6.2c2.5-1.2,5-2.5,7.5-2.5c8.7,0,12.4,5,12.4,14.9v23.9L203.8,1777.9
	L203.8,1777.9z M274.3,1777.9v-7.5l0,0c-2.5,5-6.2,7.5-12.4,7.5c-8.7,0-13.7-5-13.7-16.5v-22.7h3.7v21.4c0,5,1.2,8.7,2.5,11.2
	c1.2,2.5,3.7,3.7,7.5,3.7c3.7,0,6.2-1.2,8.7-3.7c2.5-2.5,3.7-6.2,3.7-9.9V1740h3.7v37.6h-3.7V1777.9z M346.9,1777.9v-22.7
	c0-8.7-3.7-13.7-9.9-13.7c-3.7,0-6.2,1.2-8.7,3.7c-2.5,2.5-3.7,6.2-3.7,9.9v21.4h-4v-37.6h3.7v7.5l0,0c2.5-5,7.5-7.5,12.4-7.5
	c3.7,0,7.5,1.2,9.9,3.7c2.5,2.5,3.7,6.2,3.7,11.2v22.7L346.9,1777.9L346.9,1777.9z M394.4,1730.4c-1.2,0-1.2,0-2.5-1.2
	c0,0-1.2-1.2-1.2-2.5c0-1.2,0-1.2,1.2-2.5c0,0,1.2-1.2,2.5-1.2s1.2,0,2.5,1.2c0,0,1.2,1.2,1.2,2.5s0,1.2-1.2,2.5
	C395.7,1730.4,395.7,1730.4,394.4,1730.4L394.4,1730.4z M393.2,1777.9v-37.6h3.7v37.6H393.2L393.2,1777.9z M464.9,1775.4
	c-2.5,1.2-6.2,2.5-9.9,2.5c-5,0-8.7-1.2-12.4-5c-3.7-3.7-5-8.7-5-13.7c0-6.2,1.2-11.2,5-14.9c3.7-3.7,7.5-6.2,13.7-6.2
	c2.5,0,6.2,0,8.7,1.2v3.7c-2.5-1.2-6.2-2.5-8.7-2.5c-5,0-7.5,1.2-11.2,5c-2.5,3.7-3.7,7.5-3.7,12.4s1.2,8.7,3.7,11.2
	c2.5,2.5,6.2,5,9.9,5c3.7,0,7.5-1.2,9.9-2.5V1775.4L464.9,1775.4z M527.3,1776.7v-7.5l0,0c-1.2,2.5-2.5,5-5,6.2s-5,2.5-7.5,2.5
	c-3.7,0-6.2-1.2-8.7-2.5c-2.5-2.5-3.7-5-3.7-7.5c0-6.2,3.7-9.9,12.4-12.4l11.2-1.2c0-8.7-2.5-12.4-8.7-12.4c-3.7,0-8.7,1.2-12.4,5
	v-3.7c1.2-1.2,3.7-2.5,6.2-2.5c2.5-1.2,5-1.2,6.2-1.2c3.7,0,7.5,1.2,8.7,3.7c2.5,2.5,3.7,6.2,3.7,9.9v25.2L527.3,1776.7
	L527.3,1776.7z M517.4,1757.7c-3.7,0-6.2,1.2-8.7,2.5c-1.2,1.2-2.5,3.7-2.5,6.2c0,2.5,1.2,3.7,2.5,5c1.2,1.2,3.7,2.5,6.2,2.5
	c3.7,0,6.2-1.2,8.7-3.7c2.5-2.5,3.7-6.2,3.7-9.9v-3.7L517.4,1757.7L517.4,1757.7z M588.8,1776.7c-1.2,1.2-3.7,1.2-5,1.2
	c-5,0-8.7-3.7-8.7-9.9v-25.2h-6.2v-2.5h6.2v-9.9h1.2h1.2v11.2h9.9v2.5h-9.9v25.2c0,2.5,0,5,1.2,6.2c1.2,1.2,2.5,1.2,3.7,1.2
	c1.2,0,2.5,0,5-1.2L588.8,1776.7L588.8,1776.7z M629.2,1729.2c-1.2,0-1.2,0-2.5-1.2c0,0-1.2-1.2-1.2-2.5c0-1.2,0-1.2,1.2-2.5
	c0,0,1.2-1.2,2.5-1.2s1.2,0,2.5,1.2c0,0,1.2,1.2,1.2,2.5c0,1.2,0,1.2-1.2,2.5C631.7,1729.2,630.4,1729.2,629.2,1729.2L629.2,1729.2z
	 M627.9,1776.7v-37.6h3.7v37.6H627.9L627.9,1776.7z M690.4,1777.9c-5,0-9.9-1.2-13.7-5c-3.7-3.7-5-8.7-5-13.7c0-6.2,1.2-11.2,5-14.9
	c3.7-3.7,7.5-5,13.7-5c5,0,9.9,1.2,12.4,5c3.7,3.7,5,8.7,5,14.9s-1.2,11.2-5,13.7C700.6,1775.4,695.6,1777.9,690.4,1777.9
	L690.4,1777.9z M690.4,1740.4c-5,0-7.5,1.2-11.2,5c-2.5,2.5-3.7,7.5-3.7,12.4s1.2,8.7,3.7,12.4c2.5,2.5,6.2,5,11.2,5s7.5-1.2,9.9-5
	c2.5-2.5,3.7-7.5,3.7-12.4s-1.2-9.9-3.7-12.4C698.1,1741.6,694.4,1740.4,690.4,1740.4L690.4,1740.4z M774.5,1776.7V1754
	c0-8.7-3.7-13.7-9.9-13.7c-3.7,0-6.2,1.2-8.7,3.7c-2.5,2.5-3.7,6.2-3.7,9.9v21.4h-3.7v-37.6h3.7v7.5l0,0c2.5-5,7.5-7.5,12.4-7.5
	c3.7,0,7.5,1.2,9.9,3.7c2.5,2.5,3.7,6.2,3.7,11.2v22.7L774.5,1776.7L774.5,1776.7z M852.1,1775.4v-52.8h25.2v3.7h-21.4v21.4h20.2
	v3.7h-20.2v21.4h22.7v3.7L852.1,1775.4L852.1,1775.4z M932.6,1756.5l12.4,18.9h-3.7l-9.9-16.5l0,0l-1.2,2.5c0,0,0,1.2-1.2,1.2
	l-8.7,12.4h-3.7l12.4-18.9l-12.4-18.9h3.7l8.7,13.7c1.2,1.2,1.2,2.5,2.5,3.7l0,0l2.5-2.5l8.7-13.7h3.7L932.6,1756.5L932.6,1756.5z
	 M987.8,1769.2L987.8,1769.2v23.9h-3.7v-55.3h3.7v7.5l0,0c1.2-2.5,3.7-5,6.2-6.2c2.5-1.2,5-2.5,8.7-2.5c5,0,8.7,1.2,11.2,5
	c2.5,3.7,3.7,7.5,3.7,13.7c0,6.2-1.2,11.2-5,14.9c-2.5,3.7-7.5,6.2-12.4,6.2C995.3,1776.4,991.6,1774.2,987.8,1769.2L987.8,1769.2z
	 M987.8,1754v5c0,3.7,1.2,7.5,3.7,9.9c2.5,2.5,5,3.7,9.9,3.7c3.7,0,7.5-1.2,9.9-5c2.5-3.7,3.7-7.5,3.7-12.4c0-5-1.2-8.7-3.7-11.2
	c-2.5-2.5-5-3.7-8.7-3.7c-5,0-7.5,1.2-9.9,5C989.1,1746.6,987.8,1750.3,987.8,1754L987.8,1754z M1059.3,1756.5c0,5,1.2,8.7,3.7,12.4
	c2.5,2.5,6.2,5,9.9,3.7c3.7,0,8.7-1.2,12.4-5v3.7c-3.7,2.5-8.7,3.7-13.7,3.7c-5,0-8.7-1.2-11.2-5c-2.5-3.7-5-8.7-5-14.9
	c0-5,1.2-9.9,5-13.7c3.7-3.7,7.5-6.2,12.4-6.2c5,0,8.7,1.2,11.2,5c2.5,3.7,3.7,7.5,3.7,13.7v1.2L1059.3,1756.5L1059.3,1756.5z
	 M1084.4,1752.8c0-3.7-1.2-7.5-3.7-9.9c-2.5-2.5-5-3.7-7.5-3.7c-3.7,0-6.2,1.2-8.7,3.7c-2.5,2.5-3.7,6.2-3.7,9.9H1084.4
	L1084.4,1752.8z M1145.6,1740.4c-1.2-1.2-2.5-1.2-3.7-1.2c-2.5,0-5,1.2-7.5,5c-2.5,2.5-2.5,7.5-2.5,13.7v17.7h-3.7v-37.6h3.7v8.7
	l0,0c1.2-2.5,2.5-5,3.7-6.2s3.7-2.5,6.2-2.5c1.2,0,2.5,0,3.7,1.2V1740.4L1145.6,1740.4z M1203.4,1774.2c-1.2,1.2-3.7,1.2-5,1.2
	c-5,0-8.7-3.7-8.7-9.9v-25.2h-6.2v-2.5h6.2v-9.9h1.2h1.2v11.2h9.9v2.5h-9.9v25.2c0,2.5,0,5,1.2,6.2s2.5,1.2,3.7,1.2s2.5,0,5-1.2
	L1203.4,1774.2z"/>
<rect x="84" y="168.2" fill="none" stroke="#8E8E9C" stroke-miterlimit="10" width="195.3" height="0.1"/>
<rect x="316" y="168.1" fill="none" stroke="#8E8E9C" stroke-miterlimit="10" width="195.3" height="0.1"/>
</svg>
