<?xml version="1.0" encoding="utf-8"?>
<!-- Generator: Adobe Illustrator 18.1.1, SVG Export Plug-In . SVG Version: 6.00 Build 0)  -->
<svg version="1.1" id="Слой_1" xmlns="http://www.w3.org/2000/svg" xmlns:xlink="http://www.w3.org/1999/xlink" x="0px" y="0px"
	 viewBox="0 448.8 595.3 22.6" enable-background="new 0 448.8 595.3 22.6" xml:space="preserve">
<rect x="-2152.2" y="464" display="none" fill="#FFFFFF" width="4439.8" height="2508.4"/>
<path fill="#FFFFFF" d="M-1489.6,2535.8c-15.2,10.2-34.2,15.2-56,15.2c-29,0-52.6-10.2-69.9-30.8c-18.6-21.8-27-49.3-27-83
	c0-35.8,10.2-64.5,30.8-86.8c20.2-22.4,45.9-34.2,76.7-34.2c15.2,0,32.4,3.4,47.6,10.2v22.4c-15.2-10.2-32.4-15.2-49.3-15.2
	c-25.6,0-44.2,10.2-61.1,29c-15.2,18.6-24,44.2-24,73.3s6.8,52.6,20.2,69.9c13.4,16.8,32.4,27.4,56,27.4c22.4,0,40.8-5,56-16.8v19.5
	H-1489.6z M-1353.1,2550.9c-30.8,0-56-10.2-73.3-32.4c-18.6-22.4-27.4-49.3-27.4-83.5c0-37.5,10.2-66.6,29-86.8
	c18.6-20.2,44.2-32.4,75-32.4c30.8,0,54.4,10.2,71.6,30.8c16.8,20.2,25.6,49.3,25.6,86.8c0,34.2-8.4,62.8-27.4,85.1
	C-1298.7,2540.9-1322.7,2550.9-1353.1,2550.9L-1353.1,2550.9z M-1351.5,2334.7c-25.6,0-44.2,8.4-59.4,27.4
	c-15.2,16.8-22.4,42.6-22.4,75c0,29,6.8,52.6,22.4,71.6c15.2,16.8,34.2,27.4,59.4,27.4c25.6,0,45.9-8.4,59.4-25.6
	c13.4-16.8,20.2-42.6,20.2-73.3c0-32.4-6.8-56-20.2-73.3C-1307.3,2343.7-1327.9,2334.7-1351.5,2334.7L-1351.5,2334.7z
	 M-1057.3,2545.9v-131.1c0-54.4-18.6-81.7-54.4-81.7c-20.2,0-37.5,8.4-51,24c-13.4,15.2-20.2,35.8-20.2,59.4v129.3h-16.8v-224.6
	h18.6v40.8l0,0c15.2-30.8,39.2-45.9,73.3-45.9c22.4,0,40.8,8.4,52.6,24c11.8,15.2,18.6,39.2,18.6,69.9v136.1h-20.6V2545.9z
	 M-890.4,2542.5c-10.2,5-18.6,6.8-27.4,6.8c-30.8,0-47.6-20.2-47.6-59.4v-151.3h-37.5V2320h37.5v-57.7c3.4-1.6,6.8-1.6,10.2-3.4
	c3.4-1.8,6.8-1.6,10.2-3.4v64.5h56v18.6h-56v147.9c0,15.2,1.6,27.4,6.8,34.2c5,6.8,11.8,10.2,24,10.2c8.4,0,16.8-3.4,25.6-8.4v20.2
	h-1.8V2542.5z M-721.9,2545.9v-44.2l0,0c-6.8,15.2-16.8,27.4-29,37.5c-13.4,8.4-27.4,13.4-42.6,13.4c-20.2,0-35.8-6.8-47.6-18.6
	c-11.8-11.8-16.8-27.4-16.8-45.9c0-39.2,24-62.8,73.3-71.6l64.5-10.2c0-47.6-16.8-71.6-51-71.6c-24,0-45.9,10.2-68.3,30.8v-24
	c8.4-6.8,18.6-11.8,32.4-16.8c13.4-5,25.6-6.8,37.5-6.8c22.4,0,39.2,6.8,51,22.4c11.8,13.4,18.6,35.8,18.6,62.8v146.3h-22.4v-3.4
	H-721.9z M-779.7,2433.8c-22.4,3.4-37.5,8.4-47.6,16.8c-8.4,6.8-13.4,20.2-13.4,37.5c0,13.4,3.4,24,11.8,32.4
	c8.4,8.4,20.2,13.4,35.8,13.4c20.2,0,37.5-8.4,51-24c13.4-15.2,20.2-37.5,20.2-61.1v-22.4L-779.7,2433.8L-779.7,2433.8z
	 M-500.7,2535.8c-15.2,10.2-34.2,15.2-56,15.2c-29,0-52.6-10.2-69.9-30.8c-16.8-20.2-27.4-47.6-27.4-81.7
	c0-35.8,10.2-64.5,30.8-86.8c20.2-22.4,45.9-34.2,76.7-34.2c15.2,0,32.4,3.4,47.6,10.2v22.4c-15.2-10.2-32.4-15.2-49.3-15.2
	c-25.6,0-44.2,10.2-61.1,29c-15.2,18.6-24,44.2-24,73.3s6.8,52.6,20.2,69.9c13.4,16.8,32.4,27.4,56,27.4c22.4,0,39.2-6.8,56-18.6
	L-500.7,2535.8L-500.7,2535.8z M-366.3,2542.5c-10.2,5-18.6,6.8-27.4,6.8c-30.8,0-47.6-20.2-47.6-59.4v-151.3h-37.5V2320h37.5v-57.7
	c3.4-1.6,6.8-1.6,10.2-3.4c3.4-1.6,6.8-1.6,10.2-3.4v64.5h54.4v18.6h-56v147.9c0,15.2,1.6,27.4,6.8,34.2c5,6.8,11.8,10.2,24,10.2
	c8.4,0,16.8-3.4,25.6-8.4L-366.3,2542.5L-366.3,2542.5z M-70,2535.8c-15.2,10.2-34.2,15.2-56,15.2c-29,0-52.6-10.2-69.9-30.8
	c-16.8-20.2-27.4-47.6-27.4-81.7c0-35.8,10.2-64.5,30.8-86.8c20.2-22.4,45.9-34.2,76.7-34.2c15.2,0,32.4,3.4,47.6,10.2v22.4
	c-15.2-10.2-32.4-15.2-49.3-15.2c-25.6,0-44.2,10.2-61.1,29c-15.2,18.6-24,44.2-24,73.3s6.8,52.6,20.2,69.9
	c13.4,16.8,32.4,27.4,56,27.4c22.4,0,39.2-6.8,56-18.6L-70,2535.8L-70,2535.8z M-14,2435.6c0,30.8,6.8,54.4,20.2,71.6
	c13.4,16.8,32.4,25.6,56,25.6s47.6-8.4,69.9-27.4v22.4c-22.4,16.8-45.9,25.6-73.3,25.6s-49.3-10.2-66.6-30.8
	c-16.8-20.2-25.6-49.3-25.6-88.5c0-32.4,8.4-59.4,27.4-83.5c16.8-22.4,40.8-34.2,68.3-34.2c25.6,0,45.9,10.2,61.1,29
	c13.4,20.2,20.2,45.9,20.2,80.1v8.4H-14.9v1.2h0.9V2435.6z M122.1,2416.6c0-25.6-6.8-45.9-16.8-59.4c-10.2-13.4-25.6-22.4-45.9-22.4
	s-35.8,6.8-49.3,20.2c-13.4,13.4-20.2,34.2-24,61.1h136.1v0.5H122.1z M338.3,2545.9v-131.1c0-54.4-18.6-81.7-54.4-81.7
	c-20.2,0-37.5,8.4-51,24c-13.4,15.2-20.2,35.8-20.2,59.4v129.3h-16.8v-224.6h18.6v40.8l0,0c15.2-30.8,39.2-45.9,73.3-45.9
	c22.4,0,40.8,8.4,52.6,24c11.8,15.2,18.6,39.2,18.6,69.9v136.1h-20.6V2545.9z M505,2542.5c-10.2,5-18.6,6.8-27.4,6.8
	c-30.8,0-47.6-20.2-47.6-59.4v-151.3h-37.5V2320H430v-57.7c3.4-1.6,6.8-1.6,10.2-3.4c3.4-1.6,6.8-1.6,10.2-3.4v64.5h56v18.6h-56
	v147.9c0,15.2,1.6,27.4,6.8,34.2c5,6.8,11.8,10.2,24,10.2c8.4,0,16.8-3.4,25.6-8.4v20.2H505V2542.5z M552.6,2435.6
	c0,30.8,6.8,54.4,20.2,71.6c13.4,16.8,32.4,25.6,56,25.6c24,0,47.6-8.4,69.9-27.4v22.4c-22.4,16.8-45.9,25.6-73.3,25.6
	c-27.4,0-49.3-10.2-66.6-30.8c-16.8-20.2-25.6-49.3-25.6-88.5c0-32.4,8.4-59.4,27.4-83.5c16.8-22.4,40.8-34.2,68.3-34.2
	c25.6,0,45.9,10.2,61.1,29c13.4,20.2,20.2,45.9,20.2,80.1v8.4H552.6V2435.6z M688.7,2416.6c0-25.6-6.8-45.9-16.8-59.4
	c-10.2-13.4-25.6-22.4-45.9-22.4s-35.8,6.8-49.3,20.2c-13.4,13.4-20.2,34.2-24,61.1h136.1v0.5H688.7z M862.4,2343.7
	c-6.8-5-13.4-6.8-22.4-6.8c-16.8,0-30.8,8.4-42.6,27.4c-11.8,19-16.8,44.2-16.8,78.4v105.3H762v-226.3h18.6v49.3h1.6
	c5-16.8,11.8-30.8,24-39.2c10.2-10.2,22.4-13.4,35.8-13.4c8.4,0,15.2,1.6,20.2,3.4L862.4,2343.7L862.4,2343.7z"/>
<g>
	<path fill="none" stroke="#ECF0F1" stroke-miterlimit="10" d="M284.3,458c0-3.3,2-6.1,5-7.2c-0.9-0.4-1.9-0.5-2.8-0.5
		c-4.3,0-7.9,3.5-7.9,7.7s3.5,7.7,7.9,7.7c0.1,0,0.1,0,0.3,0l0.1,3.8c1.5-1.4,2.7-2.7,3.7-3.9C287.1,464.8,284.3,461.7,284.3,458z"
		/>
	<path fill="none" stroke="#ECF0F1" stroke-miterlimit="10" d="M289.6,458c0-3.4,2.3-6.4,5.3-7.5c-0.8-0.3-1.8-0.4-2.6-0.4
		c-0.9,0-2,0.1-2.8,0.5c-3,1.1-5,3.9-5,7.2c0,3.7,2.7,6.8,6.2,7.6c0.5,0.1,1.1,0.1,1.8,0.1c0.1,0,0.1,0,0.3,0l0.1,3.8
		c1.4-1.4,2.6-2.6,3.5-3.8C292.5,465.2,289.6,461.9,289.6,458z"/>
	<path fill="none" stroke="#ECF0F1" stroke-miterlimit="10" d="M295.3,458c0-3.3,2.2-6.1,5.2-7.3c-0.9-0.4-1.9-0.5-2.8-0.5
		s-1.8,0.1-2.6,0.4c-3.1,1.1-5.3,3.9-5.3,7.5c0,3.9,2.8,7.1,6.6,7.7c0.4,0.1,0.9,0.1,1.4,0.1c0.1,0,0.1,0,0.3,0l0.1,3.8
		c1.5-1.4,2.7-2.7,3.8-4.1C298,465,295.3,461.8,295.3,458z"/>
	<path fill="none" stroke="#ECF0F1" stroke-miterlimit="10" d="M303.3,450.3c-0.9,0-2,0.1-2.8,0.5c-3,1.1-5.2,4.1-5.2,7.3
		c0,3.8,2.7,6.9,6.4,7.7c0.5,0.1,1.1,0.1,1.6,0.1c0.1,0,0.1,0,0.3,0l0.1,3.8c3.5-3.1,6.1-5.6,7.1-8.8c0.4-0.9,0.5-1.9,0.5-2.8
		C311.3,453.8,307.7,450.3,303.3,450.3z"/>
</g>
<path fill="#FFFFFF" d="M-1445.4,1688.4h44.2l195.5,460.9h-64.5l-57.7-136.1h-187.1l-54.4,136.1h-63.2L-1445.4,1688.4
	L-1445.4,1688.4z M-1353.1,1955.6l-71.6-165.1l-64.5,165.1H-1353.1L-1353.1,1955.6z M-1156,2149.4v-457.6h108.7
	c44.2,0,80.1,11.8,105.3,34.2s39.2,54.4,39.2,93.5c0,27.4-6.8,49.3-18.6,69.9c-11.8,18.6-30.8,34.2-54.4,44.2
	c13.4,10.2,27.4,22.4,40.8,39.2c13.4,16.8,32.4,45.9,56,86.8c15.2,25.6,27.4,45.9,35.8,59.4l24,32.4h-75l-16.8-32.4
	c0-1.6-1.6-3.4-3.4-5l-13.4-18.6l-18.6-34.2l-20.2-35.8c-13.4-18.6-25.6-34.2-35.8-44.2c-10.2-11.8-20.2-18.6-29-24
	c-8.8-5.4-24-6.8-44.2-6.8h-16.8v199.3h-63.6v-0.4H-1156z M-1074.2,1747.9h-18.6v144.5h24c32.4,0,52.6-3.4,64.5-8.4
	c11.8-5,20.2-13.4,27.4-25.6c6.8-11.8,10.2-24,10.2-39.2c0-13.4-3.4-27.4-10.2-39.2c-6.8-11.8-16.8-20.2-30.8-25.6
	C-1021.5,1748.7-1043.5,1747.9-1074.2,1747.9L-1074.2,1747.9z M-392,2044.1v71.6c-45.9,27.4-98.6,39.2-160.1,39.2
	c-49.3,0-90.2-10.2-124.3-30.8c-34.2-20.2-61.1-49.3-81.7-85.1c-20.2-35.8-29-75-29-117.5c0-66.6,22.4-122.7,68.3-168.5
	c45.9-45.9,101.9-68.3,168.5-68.3c45.9,0,96.9,11.8,152.9,37.5v69.9c-51-30.8-101.9-45.9-149.5-45.9c-49.3,0-91.9,16.8-124.3,49.3
	c-32.4,32.4-49.3,75-49.3,124.3c0,51,16.8,91.9,49.3,124.3c32.4,32.4,75,49.3,124.3,49.3C-493.9,2093.3-443.1,2076.5-392,2044.1
	L-392,2044.1z M-315.4,1691.8h248.6v57.7h-185.4V1889h178.7v57.7h-178.7v142.9h190.5v57.7h-253.6v-455.4H-315.4z"/>
<path d="M-1513.9,2769.6l-8.4-22.4h-30.8l-8.4,22.4h-5l27.4-73.3h5l27.4,71.6L-1513.9,2769.6L-1513.9,2769.6z M-1536.2,2710.2
	c0-1.6,0-1.6-1.6-3.4v-1.6l0,0c0,1.6-1.6,3.4-1.6,5l-11.8,34.2h27.4L-1536.2,2710.2L-1536.2,2710.2z M-1418.7,2769.6v-30.8
	c0-11.8-5-18.6-13.4-18.6c-5,0-8.4,1.6-11.8,5s-5,8.4-5,13.4v29h-5v-51h5v10.2l0,0c3.4-6.8,10.2-10.2,16.8-10.2c5,0,10.2,1.6,13.4,5
	c3.4,3.4,5,8.4,5,15.2v30.8L-1418.7,2769.6L-1418.7,2769.6z M-1344.1,2779.8c-1.6,5-3.4,8.4-6.8,10.2c-1.6,1.6-5,3.4-8.4,3.4
	c-1.6,0-3.4,0-3.4,0v-4.6c1.6,0,3.4,0,3.4,0c3.4,0,6.8-3.4,10.2-8.4l5-11.8l-20.2-51h5l15.2,42.6c0,1.6,0,1.6,0,1.6v1.6l0,0l1.6-3.4
	l16.8-42.6h5L-1344.1,2779.8L-1344.1,2779.8z M-1246.8,2768c-1.6,1.6-5,1.6-6.8,1.6c-6.8,0-11.8-5-11.8-13.4V2722h-8.4v-3.4h8.4
	v-13.4h1.6h1.6v15.2h13.4v3.4h-13.4v34.2c0,3.4,0,6.8,1.6,8.4s3.4,1.6,5,1.6s3.4,0,6.8-1.6L-1246.8,2768L-1246.8,2768z
	 M-1192.3,2705.2c-1.6,0-1.6,0-3.4-1.6c0,0-1.6-1.6-1.6-3.4c0-1.6,0-1.6,1.6-3.4c0,0,1.6-1.6,3.4-1.6c1.6,0,1.6,0,3.4,1.6
	c0,0,1.6,1.6,1.6,3.4c0,1.6,0,1.6-1.6,3.4C-1190.7,2703.4-1190.7,2705.2-1192.3,2705.2L-1192.3,2705.2z M-1194.1,2769.6v-51h5v51
	H-1194.1L-1194.1,2769.6z M-1066.4,2768v-30.8c0-6.8,0-10.2-3.4-13.4c-1.6-3.4-5-3.4-10.2-3.4c-3.4,0-6.8,1.6-10.2,5
	c-3.4,3.4-5,8.4-5,13.4v30.8h-5v-30.8c0-11.8-5-16.8-13.4-16.8c-3.4,0-8.4,1.6-10.2,5c-3.4,3.4-3.4,8.4-3.4,13.4v29h-5v-51h5v8.4
	l0,0c3.4-6.8,8.4-10.2,15.2-10.2c3.4,0,6.8,1.6,10.2,3.4c3.4,1.6,5,5,5,8.4c1.6-3.4,3.4-6.8,6.8-8.4s6.8-3.4,10.2-3.4
	c11.8,0,16.8,6.8,16.8,20.2v32.4L-1066.4,2768L-1066.4,2768z M-1002,2742.6c0,6.8,1.6,11.8,5,16.8c3.4,3.4,8.4,6.8,13.4,5
	c5,0,11.8-1.6,16.8-6.8v5c-5,3.4-11.8,5-18.6,5c-6.8,0-11.8-1.6-15.2-6.8c-3.4-5-6.8-11.8-6.8-20.2c0-6.8,1.6-13.4,6.8-18.6
	c5-5,10.2-8.4,16.8-8.4s11.8,1.6,15.2,6.8c3.4,5,5,10.2,5,18.6v1.6L-1002,2742.6L-1002,2742.6z M-969.5,2738.8c0-5-1.6-10.2-5-13.4
	c-3.4-3.3-6.8-5-10.2-5c-5,0-8.4,1.6-11.8,5c-3.4,3.4-5,8.4-5,13.4H-969.5L-969.5,2738.8z M-828.3,2768l-10.2-20.2
	c-1.6-5-3.4-6.8-6.8-8.4c-1.6-1.6-5-1.6-6.8-1.6h-8.4v32.4h-5v-71.6h20.2c6.8,0,11.8,1.6,15.2,5c3.4,3.4,5,8.4,5,13.4
	c0,5-1.6,10.2-5,13.4c-3.4,3.4-6.8,5-11.8,6.8l0,0c3.4,1.6,5,5,8.4,10.2l10.2,24L-828.3,2768L-828.3,2768z M-860.7,2700.2v30.8h12.2
	c5,0,10.2-1.6,13.4-5c3.4-3.4,5-6.8,5-11.8c0-5-1.6-8.4-5-10.2c-3.4-3.4-6.8-3.4-11.8-3.4L-860.7,2700.2L-860.7,2700.2z
	 M-765.2,2742.6c0,6.8,1.6,11.8,5,16.8c3.4,3.4,8.4,5,13.4,5s11.8-1.6,16.8-6.8v5c-5,3.4-11.8,5-18.6,5s-11.8-1.6-15.2-6.8
	c-3.4-5-6.8-11.8-6.8-20.2c0-6.8,1.6-13.4,6.8-18.6c5-5,10.2-8.4,16.8-8.4c6.8,0,11.8,1.6,15.2,6.8c3.4,5,5,10.2,5,18.6v1.6
	L-765.2,2742.6L-765.2,2742.6z M-733.2,2737.2c0-5-1.6-10.2-5-13.4c-3.4-3.4-6.8-5-10.2-5c-5,0-8.4,1.6-11.8,5s-5,8.4-5,13.4H-733.2
	L-733.2,2737.2z M-671.6,2766.2v-76.7h5v76.7H-671.6L-671.6,2766.2z M-607.1,2701.8c-1.6,0-1.6,0-3.4-1.6c0,0-1.6-1.6-1.6-3.4
	c0-1.6,0-1.6,1.6-3.4c0,0,1.6-1.6,3.4-1.6c1.6,0,1.6,0,3.4,1.6c0,0,1.6,1.6,1.6,3.4c0,1.6,0,1.6-1.6,3.4
	C-605.5,2701.8-605.5,2701.8-607.1,2701.8L-607.1,2701.8z M-608.9,2766.2v-51h5v51H-608.9L-608.9,2766.2z M-513.6,2766.2v-10.2l0,0
	c-1.6,3.4-3.4,6.8-6.8,8.4s-6.8,3.4-10.2,3.4c-5,0-8.4-1.6-11.8-3.4c-3.4-3.4-5-6.8-5-10.2c0-8.4,5-13.4,16.8-16.8l15.2-1.6
	c0-11.8-3.4-16.8-11.8-16.8c-5,0-11.8,1.6-16.8,6.8v-5c1.6-1.6,5-3.4,8.4-3.4c3.4-1.6,6.8-1.6,8.4-1.6c5,0,10.2,1.6,11.8,5
	c3.4,3.4,5,8.4,5,13.4v34.2L-513.6,2766.2L-513.6,2766.2z M-528.8,2741c-5,0-8.4,1.6-11.8,3.4c-1.6,1.6-3.4,5-3.4,8.4s1.6,5,3.4,6.8
	c1.6,1.6,5,3.4,8.4,3.4c5,0,8.4-1.6,11.8-5s5-8.4,5-13.4v-5L-528.8,2741L-528.8,2741z M-447,2756.2L-447,2756.2v8.4h-5v-76.7h5v35.8
	l0,0c1.6-3.4,5-6.8,8.4-8.4s6.8-3.4,11.8-3.4c6.8,0,11.8,1.6,15.2,6.8c3.4,5,5,10.2,5,18.6s-1.6,15.2-6.8,20.2
	c-3.4,5-10.2,8.4-16.8,8.4C-437,2768-443.6,2764.6-447,2756.2L-447,2756.2z M-447,2737.2v6.8c0,5,1.6,10.2,5,13.4
	c3.4,3.4,6.8,5,13.4,5c5,0,10.2-1.6,13.4-6.8c3.4-5,5-10.2,5-16.8s-1.6-11.8-5-15.2c-3.4-3.4-6.8-5-11.8-5c-6.8,0-10.2,1.6-13.4,6.8
	C-445.4,2727-447,2732.2-447,2737.2L-447,2737.2z M-351.7,2766.2v-76.7h5v76.7H-351.7L-351.7,2766.2z M-287.3,2738.8
	c0,6.8,1.6,11.8,5,16.8c3.4,3.4,8.4,5,13.4,5s11.8-1.6,16.8-6.8v5c-5,3.4-11.8,5-18.6,5c-6.8,0-11.8-1.6-15.2-6.8
	c-3.4-5-6.8-11.8-6.8-20.2c0-6.8,1.6-13.4,6.8-18.6c5-5,10.2-8.4,16.8-8.4c6.6,0,11.8,1.6,15.2,6.8c3.4,5,5,10.2,5,18.6v1.6
	L-287.3,2738.8L-287.3,2738.8z M-253.2,2735.4c0-5-1.6-10.2-5-13.4c-3.4-3.4-6.8-5-10.2-5c-5,0-8.4,1.6-11.8,5s-5,8.4-5,13.4H-253.2
	L-253.2,2735.4z M-101.5,2762.9c-5,1.6-11.8,3.4-18.6,3.4c-10.2,0-18.6-3.4-24-10.2c-6.8-6.8-10.2-15.2-10.2-25.6
	c0-11.8,3.4-20.2,10.2-29c6.8-6.8,15.2-10.2,25.6-10.2c5,0,10.2,1.6,15.2,3.4v5c-5-1.6-10.2-3.4-15.2-3.4c-8.4,0-16.8,3.4-22.4,8.4
	c-5,6.8-8.4,13.4-8.4,24c0,10.6,3.4,16.8,8.4,24c5,5,11.8,8.4,20.2,8.4c6.8,0,11.8-1.6,18.6-3.4v5h0.5V2762.9z M-23.5,2766.2
	c-6.8,0-13.4-1.6-18.6-6.8c-5-5-6.8-11.8-6.8-18.6c0-8.4,1.6-15.2,6.8-20.2c5-5,10.2-6.8,18.6-6.8c6.8,0,13.4,1.6,16.8,6.8
	c5,5,6.8,11.8,6.8,20.2s-1.6,15.2-6.8,18.6C-9.7,2762.9-16.8,2766.2-23.5,2766.2L-23.5,2766.2z M-23.5,2715.2
	c-6.8,0-10.2,1.6-15.2,6.8c-3.4,3.4-5,10.2-5,16.8c0,6.8,1.6,11.8,5,16.8c3.4,3.4,8.4,6.8,15.2,6.8s10.2-1.6,13.4-6.8
	c3.4-3.4,5-10.2,5-16.8c0-6.8-1.6-13.4-5-16.8C-13,2717-16.8,2715.2-23.5,2715.2L-23.5,2715.2z M121.4,2764.6v-30.8
	c0-6.8-1.6-10.2-3.4-13.4c-1.6-3.4-5-3.4-10.2-3.4c-3.4,0-6.8,1.6-10.2,5s-5,8.4-5,13.4v30.8h-5v-30.8c0-11.8-5-16.8-13.4-16.8
	c-3.4,0-8.4,1.6-10.2,5c-3.4,3.4-3.4,8.4-3.4,13.4v29h-5v-51h5v8.4l0,0c3.4-6.8,8.4-10.2,15.2-10.2c3.4,0,6.8,1.6,10.2,3.4
	c3.4,1.6,5,5,5,8.4c1.6-3.4,3.4-6.8,6.8-8.4s6.8-3.4,10.2-3.4c24,0,16.8,35.8,16.8,52.6L121.4,2764.6L121.4,2764.6z M248.7,2762.9
	V2732c0-6.8-1.6-10.2-3.4-13.4c-1.6-3.4-5-3.4-10.2-3.4c-3.4,0-6.8,1.6-10.2,5c-3.4,3.4-5,8.4-5,13.4v30.8h-5v-30.8
	c0-11.8-5-16.8-13.4-16.8c-3.4,0-8.4,1.6-10.2,5c-3.4,3.4-3.4,8.4-3.4,13.4v29h-5v-51h5v8.4l0,0c3.4-6.8,8.4-10.2,15.2-10.2
	c3.4,0,6.8,1.6,10.2,3.4c3.4,1.6,5,5,5,8.4c1.6-3.4,3.4-6.8,6.8-8.4c3.4-1.6,6.8-3.4,10.2-3.4c11.8,0,16.8,6.8,16.8,20.2v32.4
	L248.7,2762.9L248.7,2762.9z M344.4,2762.9v-10.2l0,0c-3.4,6.8-8.4,10.2-16.8,10.2c-11.8,0-18.6-6.8-18.6-22.4v-30.8h5v29
	c0,6.8,1.6,11.8,3.4,15.2c1.6,3.4,5,5,10.2,5c5,0,8.4-1.6,11.8-5c3.4-3.4,5-8.4,5-13.4v-29h5v51h-5L344.4,2762.9L344.4,2762.9z
	 M442.9,2762.9V2732c0-11.8-5-18.6-13.4-18.6c-5,0-8.4,1.6-11.8,5c-3.4,3.4-5,8.4-5,13.4v29h-5.4v-51h5v10.2l0,0
	c3.4-6.8,10.2-10.2,16.8-10.2c5,0,10.2,1.6,13.4,5c3.4,3.4,5,8.4,5,15.2v30.8L442.9,2762.9L442.9,2762.9z M507.3,2698.4
	c-1.6,0-1.6,0-3.4-1.6c0,0-1.6-1.6-1.6-3.4c0-1.6,0-1.6,1.6-3.4c0,0,1.6-1.6,3.4-1.6s1.6,0,3.4,1.6c0,0,1.6,1.6,1.6,3.4
	c0,1.8,0,1.6-1.6,3.4C509.1,2698.4,509.1,2698.4,507.3,2698.4L507.3,2698.4z M505.7,2762.9v-51h5v51H505.7L505.7,2762.9z
	 M603,2759.5c-3.4,1.6-8.4,3.4-13.4,3.4c-6.8,0-11.8-1.6-16.8-6.8c-5-5-6.8-11.8-6.8-18.6c0-8.4,1.6-15.2,6.8-20.2
	c5-5,10.2-8.4,18.6-8.4c3.4,0,8.4,0,11.8,1.6v5c-3.4-1.6-8.4-3.4-11.8-3.4c-6.8,0-10.2,1.6-15.2,6.8c-3.4,5-5,10.2-5,16.8
	s1.6,11.8,5,15.2c3.4,3.4,8.4,6.8,13.4,6.8c5,0,10.2-1.6,13.4-3.4V2759.5L603,2759.5z M687.7,2761.2V2751l0,0
	c-1.6,3.4-3.4,6.8-6.8,8.4c-3.4,1.6-6.8,3.4-10.2,3.4c-5,0-8.4-1.6-11.8-3.4c-3.4-3.4-5-6.8-5-10.2c0-8.4,5-13.4,16.8-16.8l15.2-1.6
	c0-11.8-3.4-16.8-11.8-16.8c-5,0-11.8,1.6-16.8,6.8v-5c1.6-1.6,5-3.4,8.4-3.4c3.4-1.6,6.8-1.6,8.4-1.6c5,0,10.2,1.6,11.8,5
	c3.4,3.4,5,8.4,5,13.4v34.2L687.7,2761.2L687.7,2761.2z M674.2,2735.4c-5,0-8.4,1.6-11.8,3.4c-1.6,1.6-3.4,5-3.4,8.4s1.6,5,3.4,6.8
	c1.6,1.6,5,3.4,8.4,3.4c5,0,8.4-1.6,11.8-5c3.4-3.4,5-8.4,5-13.4v-5L674.2,2735.4L674.2,2735.4z M771.1,2761.2
	c-1.6,1.6-5,1.6-6.8,1.6c-6.8,0-11.8-5-11.8-13.4v-34.2h-8.4v-3.4h8.4v-13.4h1.6h1.6v15.2h13.4v3.4h-13.4v34.2c0,3.4,0,6.8,1.6,8.4
	c1.6,1.6,3.4,1.6,5,1.6c1.6,0,3.4,0,6.8-1.6L771.1,2761.2L771.1,2761.2z M825.9,2696.8c-1.6,0-1.6,0-3.4-1.6c0,0-1.6-1.6-1.6-3.4
	c0-1.6,0-1.6,1.6-3.4c0,0,1.6-1.6,3.4-1.6s1.6,0,3.4,1.6c0,0,1.6,1.6,1.6,3.4c0,1.6,0,1.6-1.6,3.4
	C829.3,2696.8,827.6,2696.8,825.9,2696.8L825.9,2696.8z M824.2,2761.2v-51h5v51H824.2L824.2,2761.2z M909,2762.9
	c-6.8,0-13.4-1.6-18.6-6.8c-5-5-6.8-11.8-6.8-18.6c0-8.4,1.6-15.2,6.8-20.2c5-5,10.2-6.8,18.6-6.8c6.8,0,13.4,1.6,16.8,6.8
	c5,5,6.8,11.8,6.8,20.2c0,8.4-1.6,15.2-6.8,18.6C922.8,2759.5,916,2762.9,909,2762.9L909,2762.9z M909,2712
	c-6.8,0-10.2,1.6-15.2,6.8c-3.4,3.4-5,10.2-5,16.8s1.6,11.8,5,16.8c3.4,3.4,8.4,6.8,15.2,6.8s10.2-1.6,13.4-6.8
	c3.4-3.4,5-10.2,5-16.8s-1.6-13.4-5-16.8C919.4,2713.6,914.4,2712,909,2712L909,2712z M1023.1,2761.2v-30.8c0-11.8-5-18.6-13.4-18.6
	c-5,0-8.4,1.6-11.8,5c-3.4,3.4-5,8.4-5,13.4v29h-5v-51h5v10.2l0,0c3.4-6.8,10.2-10.2,16.8-10.2c5,0,10.2,1.6,13.4,5
	c3.4,3.4,5,8.4,5,15.2v30.8L1023.1,2761.2L1023.1,2761.2z M1128.4,2759.5v-71.6h34.2v5h-29v29h27.4v5h-27.4v29h30.8v5L1128.4,2759.5
	L1128.4,2759.5z M1237.6,2733.8l16.8,25.6h-5l-13.4-22.4l0,0l-1.6,3.4c0,0,0,1.6-1.6,1.6l-11.8,16.8h-5l16.8-25.6l-16.8-25.6h5
	l11.8,18.6c1.6,1.6,1.6,3.4,3.4,5l0,0l3.4-3.4l11.8-18.6h5L1237.6,2733.8L1237.6,2733.8z M1312.5,2751L1312.5,2751v32.4h-5v-75h5
	v10.2l0,0c1.6-3.4,5-6.8,8.4-8.4c3.4-1.6,6.8-3.4,11.8-3.4c6.8,0,11.8,1.6,15.2,6.8c3.4,5,5,10.2,5,18.6s-1.6,15.2-6.8,20.2
	c-3.4,5-10.2,8.4-16.8,8.4C1322.7,2760.8,1317.7,2757.8,1312.5,2751L1312.5,2751z M1312.5,2730.4v6.8c0,5,1.6,10.2,5,13.4
	c3.4,3.4,6.8,5,13.4,5c5,0,10.2-1.6,13.4-6.8c3.4-5,5-10.2,5-16.8c0-6.8-1.6-11.8-5-15.2c-3.4-3.4-6.8-5-11.8-5
	c-6.8,0-10.2,1.6-13.4,6.8C1314.3,2720.4,1312.5,2725.4,1312.5,2730.4L1312.5,2730.4z M1409.5,2733.8c0,6.8,1.6,11.8,5,16.8
	c3.4,3.4,8.4,6.8,13.4,5c5,0,11.8-1.6,16.8-6.8v5c-5,3.4-11.8,5-18.6,5c-6.8,0-11.8-1.6-15.2-6.8c-3.4-5-6.8-11.8-6.8-20.2
	c0-6.8,1.6-13.4,6.8-18.6c5-5,10.2-8.4,16.8-8.4c6.8,0,11.8,1.6,15.2,6.8c3.4,5,5,10.2,5,18.6v1.6L1409.5,2733.8L1409.5,2733.8z
	 M1443.6,2728.8c0-5-1.6-10.2-5-13.4c-3.4-3.4-6.8-5-10.2-5c-5,0-8.4,1.6-11.8,5s-5,8.4-5,13.4H1443.6L1443.6,2728.8z M1526.6,2712
	c-1.6-1.6-3.4-1.6-5-1.6c-3.4,0-6.8,1.6-10.2,6.8c-3.4,3.4-3.4,10.2-3.4,18.6v24h-5v-51h5v11.8l0,0c1.6-3.4,3.4-6.8,5-8.4
	c1.6-1.6,5-3.4,8.4-3.4c1.6,0,3.4,0,5,1.6v1.6H1526.6z M1605.1,2757.8c-1.6,1.6-5,1.6-6.8,1.6c-6.8,0-11.8-5-11.8-13.4v-34.2h-8.4
	v-3.4h8.4V2695h1.6h1.6v15.2h13.4v3.4h-13.4v34.2c0,3.4,0,6.8,1.6,8.4c1.6,1.6,3.4,1.6,5,1.6c1.6,0,3.4,0,6.8-1.6L1605.1,2757.8z"/>
<rect x="5.1" y="459.9" fill="none" stroke="#ECF0F1" stroke-miterlimit="10" width="265" height="0.1"/>
<rect x="319.9" y="459.8" fill="none" stroke="#ECF0F1" stroke-miterlimit="10" width="265" height="0.1"/>
</svg>
