<?xml version="1.0" encoding="utf-8"?>
<!-- Generator: Adobe Illustrator 18.1.1, SVG Export Plug-In . SVG Version: 6.00 Build 0)  -->
<svg version="1.1" id="Слой_1" xmlns="http://www.w3.org/2000/svg" xmlns:xlink="http://www.w3.org/1999/xlink" x="0px" y="0px"
	 viewBox="0 56.5 595.3 718.7" enable-background="new 0 56.5 595.3 718.7" xml:space="preserve">
<rect x="-2661.7" y="171.8" display="none" fill="#FFFFFF" width="5421" height="3062.7"/>
<path d="M-1882.3,2987l-10.3-27.3h-37.6l-10.3,27.3h-6.1l33.5-89.5h6.1l33.5,87.5L-1882.3,2987L-1882.3,2987z M-1909.5,2914.5
	c0-2,0-2-2-4.1v-2l0,0c0,2-2,4.1-2,6.1l-14.4,41.8h33.5L-1909.5,2914.5L-1909.5,2914.5z M-1766,2987v-37.6
	c0-14.4-6.1-22.7-16.4-22.7c-6.1,0-10.3,2-14.4,6.1c-4.1,4.1-6.1,10.3-6.1,16.4v35.5h-6.1v-62.3h6.1v12.4l0,0
	c4.1-8.3,12.4-12.4,20.5-12.4c6.1,0,12.4,2,16.4,6.1c4.1,4.1,6.1,10.3,6.1,18.6v37.6L-1766,2987L-1766,2987z M-1674.9,2999.5
	c-2,6.1-4.1,10.3-8.3,12.4c-2,2-6.1,4.1-10.3,4.1c-2,0-4.1,0-4.1,0v-5.6c2,0,4.1,0,4.1,0c4.1,0,8.3-4.1,12.4-10.3l6.1-14.4
	l-24.7-62.3h6.1l18.6,52c0,2,0,2,0,2v2l0,0l2-4.1l20.5-52h6.1L-1674.9,2999.5L-1674.9,2999.5z M-1556.1,2985c-2,2-6.1,2-8.3,2
	c-8.3,0-14.4-6.1-14.4-16.4v-41.8h-10.3v-4.1h10.3v-16.4h2h2v18.6h16.4v4.1h-16.4v41.8c0,4.1,0,8.3,2,10.3s4.1,2,6.1,2s4.1,0,8.3-2
	L-1556.1,2985L-1556.1,2985z M-1489.7,2908.3c-2,0-2,0-4.1-2c0,0-2-2-2-4.1c0-2,0-2,2-4.1c0,0,2-2,4.1-2c2,0,2,0,4.1,2
	c0,0,2,2,2,4.1c0,2,0,2-2,4.1C-1487.7,2906.2-1487.7,2908.3-1489.7,2908.3L-1489.7,2908.3z M-1491.8,2987v-62.3h6.1v62.3H-1491.8
	L-1491.8,2987z M-1335.9,2985v-37.6c0-8.3,0-12.4-4.1-16.4c-2-4.1-6.1-4.1-12.4-4.1c-4.1,0-8.3,2-12.4,6.1
	c-4.1,4.1-6.1,10.3-6.1,16.4v37.6h-6.1v-37.6c0-14.4-6.1-20.5-16.4-20.5c-4.1,0-10.3,2-12.4,6.1c-4.1,4.1-4.1,10.3-4.1,16.4v35.5
	h-6.1v-62.3h6.1v10.3l0,0c4.1-8.3,10.3-12.4,18.6-12.4c4.1,0,8.3,2,12.4,4.1c4.1,2,6.1,6.1,6.1,10.3c2-4.1,4.1-8.3,8.3-10.3
	s8.3-4.1,12.4-4.1c14.4,0,20.5,8.3,20.5,24.7v39.6L-1335.9,2985L-1335.9,2985z M-1257.2,2954.1c0,8.3,2,14.4,6.1,20.5
	c4.1,4.1,10.3,8.3,16.4,6.1c6.1,0,14.4-2,20.5-8.3v6.1c-6.1,4.1-14.4,6.1-22.7,6.1c-8.3,0-14.4-2-18.6-8.3
	c-4.1-6.1-8.3-14.4-8.3-24.7c0-8.3,2-16.4,8.3-22.7c6.1-6.1,12.4-10.3,20.5-10.3c8.1,0,14.4,2,18.6,8.3c4.1,6.1,6.1,12.4,6.1,22.7v2
	L-1257.2,2954.1L-1257.2,2954.1z M-1217.6,2949.4c0-6.1-2-12.4-6.1-16.4c-4.1-4-8.3-6.1-12.4-6.1c-6.1,0-10.3,2-14.4,6.1
	c-4.1,4.1-6.1,10.3-6.1,16.4H-1217.6L-1217.6,2949.4z M-1045.2,2985l-12.4-24.7c-2-6.1-4.1-8.3-8.3-10.3c-2-2-6.1-2-8.3-2h-10.3
	v39.6h-6.1v-87.5h24.7c8.3,0,14.4,2,18.6,6.1c4.1,4.1,6.1,10.3,6.1,16.4s-2,12.4-6.1,16.4c-4.1,4.1-8.3,6.1-14.4,8.3l0,0
	c4.1,2,6.1,6.1,10.3,12.4l12.4,29.3L-1045.2,2985L-1045.2,2985z M-1084.8,2902.2v37.6h14.9c6.1,0,12.4-2,16.4-6.1
	c4.1-4.1,6.1-8.3,6.1-14.4c0-6.1-2-10.3-6.1-12.4c-4.1-4.1-8.3-4.1-14.4-4.1L-1084.8,2902.2L-1084.8,2902.2z M-968.1,2954.1
	c0,8.3,2,14.4,6.1,20.5c4.1,4.1,10.3,6.1,16.4,6.1c6.1,0,14.4-2,20.5-8.3v6.1c-6.1,4.1-14.4,6.1-22.7,6.1s-14.4-2-18.6-8.3
	c-4.1-6.1-8.3-14.4-8.3-24.7c0-8.3,2-16.4,8.3-22.7c6.1-6.1,12.4-10.3,20.5-10.3c8.3,0,14.4,2,18.6,8.3c4.1,6.1,6.1,12.4,6.1,22.7v2
	L-968.1,2954.1L-968.1,2954.1z M-929,2947.4c0-6.1-2-12.4-6.1-16.4c-4.1-4.1-8.3-6.1-12.4-6.1c-6.1,0-10.3,2-14.4,6.1
	c-4.1,4.1-6.1,10.3-6.1,16.4H-929L-929,2947.4z M-853.8,2982.9v-93.6h6.1v93.6H-853.8L-853.8,2982.9z M-775.1,2904.2c-2,0-2,0-4.1-2
	c0,0-2-2-2-4.1c0-2,0-2,2-4.1c0,0,2-2,4.1-2c2,0,2,0,4.1,2c0,0,2,2,2,4.1c0,2,0,2-2,4.1C-773.1,2904.2-773.1,2904.2-775.1,2904.2
	L-775.1,2904.2z M-777.3,2982.9v-62.3h6.1v62.3H-777.3L-777.3,2982.9z M-661,2982.9v-12.4l0,0c-2,4.1-4.1,8.3-8.3,10.3
	c-4.1,2-8.3,4.1-12.4,4.1c-6.1,0-10.3-2-14.4-4.1c-4.1-4.1-6.1-8.3-6.1-12.4c0-10.3,6.1-16.4,20.5-20.5l18.6-2
	c0-14.4-4.1-20.5-14.4-20.5c-6.1,0-14.4,2-20.5,8.3v-6.1c2-2,6.1-4.1,10.3-4.1c4.1-2,8.3-2,10.3-2c6.1,0,12.4,2,14.4,6.1
	c4.1,4.1,6.1,10.3,6.1,16.4v41.8L-661,2982.9L-661,2982.9z M-679.5,2952.1c-6.1,0-10.3,2-14.4,4.1c-2,2-4.1,6.1-4.1,10.3
	s2,6.1,4.1,8.3c2,2,6.1,4.1,10.3,4.1c6.1,0,10.3-2,14.4-6.1c4.1-4.1,6.1-10.3,6.1-16.4v-6.1L-679.5,2952.1L-679.5,2952.1z
	 M-579.6,2970.6L-579.6,2970.6v10.3h-6.1v-93.6h6.1v43.7l0,0c2-4.1,6.1-8.3,10.3-10.3c4.1-2,8.3-4.1,14.4-4.1c8.3,0,14.4,2,18.6,8.3
	c4.1,6.1,6.1,12.4,6.1,22.7s-2,18.6-8.3,24.7c-4.1,6.1-12.4,10.3-20.5,10.3C-567.4,2985-575.5,2980.9-579.6,2970.6L-579.6,2970.6z
	 M-579.6,2947.4v8.3c0,6.1,2,12.4,6.1,16.4c4.1,4.1,8.3,6.1,16.4,6.1c6.1,0,12.4-2,16.4-8.3c4.1-6.1,6.1-12.4,6.1-20.5
	c0-8.1-2-14.4-6.1-18.6c-4.1-4.1-8.3-6.1-14.4-6.1c-8.3,0-12.4,2-16.4,8.3C-577.6,2935-579.6,2941.3-579.6,2947.4L-579.6,2947.4z
	 M-463.3,2982.9v-93.6h6.1v93.6H-463.3L-463.3,2982.9z M-384.6,2949.4c0,8.3,2,14.4,6.1,20.5c4.1,4.1,10.3,6.1,16.4,6.1
	s14.4-2,20.5-8.3v6.1c-6.1,4.1-14.4,6.1-22.7,6.1c-8.3,0-14.4-2-18.6-8.3c-4.1-6.1-8.3-14.4-8.3-24.7c0-8.3,2-16.4,8.3-22.7
	c6.1-6.1,12.4-10.3,20.5-10.3s14.4,2,18.6,8.3c4.1,6.1,6.1,12.4,6.1,22.7v2L-384.6,2949.4L-384.6,2949.4z M-343,2945.3
	c0-6.1-2-12.4-6.1-16.4c-4.1-4.1-8.3-6.1-12.4-6.1c-6.1,0-10.3,2-14.4,6.1c-4.1,4.1-6.1,10.3-6.1,16.4H-343L-343,2945.3z
	 M-157.8,2978.7c-6.1,2-14.4,4.1-22.7,4.1c-12.4,0-22.7-4.1-29.3-12.4c-8.3-8.3-12.4-18.6-12.4-31.3c0-14.4,4.1-24.7,12.4-35.5
	c8.3-8.3,18.6-12.4,31.3-12.4c6.1,0,12.4,2,18.6,4.1v6.1c-6.1-2-12.4-4.1-18.6-4.1c-10.3,0-20.5,4.1-27.3,10.3
	c-6.1,8.3-10.3,16.4-10.3,29.3c0,12.9,4.1,20.5,10.3,29.3c6.1,6.1,14.4,10.3,24.7,10.3c8.3,0,14.4-2,22.7-4.1v6.1h0.7V2978.7z
	 M-62.5,2982.9c-8.3,0-16.4-2-22.7-8.3c-6.1-6.1-8.3-14.4-8.3-22.7c0-10.3,2-18.6,8.3-24.7c6.1-6.1,12.4-8.3,22.7-8.3
	c8.3,0,16.4,2,20.5,8.3c6.1,6.1,8.3,14.4,8.3,24.7s-2,18.6-8.3,22.7C-45.6,2978.7-54.4,2982.9-62.5,2982.9L-62.5,2982.9z
	 M-62.5,2920.6c-8.3,0-12.4,2-18.6,8.3c-4.1,4.1-6.1,12.4-6.1,20.5c0,8.3,2,14.4,6.1,20.5c4.1,4.1,10.3,8.3,18.6,8.3
	s12.4-2,16.4-8.3c4.1-4.1,6.1-12.4,6.1-20.5c0-8.3-2-16.4-6.1-20.5C-49.8,2922.7-54.4,2920.6-62.5,2920.6L-62.5,2920.6z
	 M114.4,2980.9v-37.6c0-8.3-2-12.4-4.1-16.4c-2-4.1-6.1-4.1-12.4-4.1c-4.1,0-8.3,2-12.4,6.1c-4.1,4.1-6.1,10.3-6.1,16.4v37.6h-6.1
	v-37.6c0-14.4-6.1-20.5-16.4-20.5c-4.1,0-10.3,2-12.4,6.1c-4.1,4.1-4.1,10.3-4.1,16.4v35.5H34v-62.3h6.1v10.3l0,0
	c4.1-8.3,10.3-12.4,18.6-12.4c4.1,0,8.3,2,12.4,4.1c4.1,2,6.1,6.1,6.1,10.3c2-4.1,4.1-8.3,8.3-10.3s8.3-4.1,12.4-4.1
	c29.3,0,20.5,43.7,20.5,64.3L114.4,2980.9L114.4,2980.9z M269.8,2978.7v-37.6c0-8.3-2-12.4-4.1-16.4c-2-4.1-6.1-4.1-12.4-4.1
	c-4.1,0-8.3,2-12.4,6.1c-4.1,4.1-6.1,10.3-6.1,16.4v37.6h-6.1v-37.6c0-14.4-6.1-20.5-16.4-20.5c-4.1,0-10.3,2-12.4,6.1
	c-4.1,4.1-4.1,10.3-4.1,16.4v35.5h-6.1v-62.3h6.1v10.3l0,0c4.1-8.3,10.3-12.4,18.6-12.4c4.1,0,8.3,2,12.4,4.1
	c4.1,2,6.1,6.1,6.1,10.3c2-4.1,4.1-8.3,8.3-10.3c4.1-2,8.3-4.1,12.4-4.1c14.4,0,20.5,8.3,20.5,24.7v39.6L269.8,2978.7L269.8,2978.7z
	 M386.6,2978.7v-12.4l0,0c-4.1,8.3-10.3,12.4-20.5,12.4c-14.4,0-22.7-8.3-22.7-27.3v-37.6h6.1v35.5c0,8.3,2,14.4,4.1,18.6
	c2,4.1,6.1,6.1,12.4,6.1c6.1,0,10.3-2,14.4-6.1c4.1-4.1,6.1-10.3,6.1-16.4V2916h6.1v62.3h-6.1L386.6,2978.7L386.6,2978.7z
	 M506.9,2978.7v-37.6c0-14.4-6.1-22.7-16.4-22.7c-6.1,0-10.3,2-14.4,6.1c-4.1,4.1-6.1,10.3-6.1,16.4v35.5h-6.6v-62.3h6.1v12.4l0,0
	c4.1-8.3,12.4-12.4,20.5-12.4c6.1,0,12.4,2,16.4,6.1c4.1,4.1,6.1,10.3,6.1,18.6v37.6L506.9,2978.7L506.9,2978.7z M585.6,2900
	c-2,0-2,0-4.1-2c0,0-2-2-2-4.1c0-2,0-2,2-4.1c0,0,2-2,4.1-2c2,0,2,0,4.1,2c0,0,2,2,2,4.1c0,2,0,2-2,4.1
	C587.7,2900,587.7,2900,585.6,2900L585.6,2900z M583.6,2978.7v-62.3h6.1v62.3H583.6L583.6,2978.7z M702.4,2974.6
	c-4.1,2-10.3,4.1-16.4,4.1c-8.3,0-14.4-2-20.5-8.3c-6.1-6.1-8.3-14.4-8.3-22.7c0-10.3,2-18.6,8.3-24.7c6.1-6.1,12.4-10.3,22.7-10.3
	c4.1,0,10.3,0,14.4,2v6.1c-4.1-2-10.3-4.1-14.4-4.1c-8.3,0-12.4,2-18.6,8.3c-4.1,6.1-6.1,12.4-6.1,20.5c0,8.1,2,14.4,6.1,18.6
	c4.1,4.1,10.3,8.3,16.4,8.3s12.4-2,16.4-4.1V2974.6L702.4,2974.6z M805.8,2976.8v-12.4l0,0c-2,4.1-4.1,8.3-8.3,10.3
	c-4.1,2-8.3,4.1-12.4,4.1c-6.1,0-10.3-2-14.4-4.1c-4.1-4.1-6.1-8.3-6.1-12.4c0-10.3,6.1-16.4,20.5-20.5l18.6-2
	c0-14.4-4.1-20.5-14.4-20.5c-6.1,0-14.4,2-20.5,8.3v-6.1c2-2,6.1-4.1,10.3-4.1c4.1-2,8.3-2,10.3-2c6.1,0,12.4,2,14.4,6.1
	c4.1,4.1,6.1,10.3,6.1,16.4v41.8L805.8,2976.8L805.8,2976.8z M789.4,2945.3c-6.1,0-10.3,2-14.4,4.1c-2,2-4.1,6.1-4.1,10.3
	c0,4.1,2,6.1,4.1,8.3c2,2,6.1,4.1,10.3,4.1c6.1,0,10.3-2,14.4-6.1c4.1-4.1,6.1-10.3,6.1-16.4v-6.1L789.4,2945.3L789.4,2945.3z
	 M907.7,2976.8c-2,2-6.1,2-8.3,2c-8.3,0-14.4-6.1-14.4-16.4v-41.8h-10.3v-4.1H885V2900h2h2v18.6h16.4v4.1h-16.4v41.8
	c0,4.1,0,8.3,2,10.3s4.1,2,6.1,2s4.1,0,8.3-2L907.7,2976.8L907.7,2976.8z M974.6,2898.1c-2,0-2,0-4.1-2c0,0-2-2-2-4.1c0-2,0-2,2-4.1
	c0,0,2-2,4.1-2s2,0,4.1,2c0,0,2,2,2,4.1c0,2,0,2-2,4.1C978.7,2898.1,976.6,2898.1,974.6,2898.1L974.6,2898.1z M972.4,2976.8v-62.3
	h6.1v62.3H972.4L972.4,2976.8z M1076,2978.7c-8.3,0-16.4-2-22.7-8.3c-6.1-6.1-8.3-14.4-8.3-22.7c0-10.3,2-18.6,8.3-24.7
	c6.3-6.1,12.4-8.3,22.7-8.3c8.3,0,16.4,2,20.5,8.3c6.1,6.1,8.3,14.4,8.3,24.7s-2,18.6-8.3,22.7
	C1092.9,2974.6,1084.6,2978.7,1076,2978.7L1076,2978.7z M1076,2916.6c-8.3,0-12.4,2-18.6,8.3c-4.1,4.1-6.1,12.4-6.1,20.5
	c0,8.1,2,14.4,6.1,20.5c4.1,4.1,10.3,8.3,18.6,8.3c8.3,0,12.4-2,16.4-8.3c4.1-4.1,6.1-12.4,6.1-20.5c0-8.1-2-16.4-6.1-20.5
	C1088.8,2918.6,1082.6,2916.6,1076,2916.6L1076,2916.6z M1215.3,2976.8v-37.6c0-14.4-6.1-22.7-16.4-22.7c-6.1,0-10.3,2-14.4,6.1
	c-4.1,4.1-6.1,10.3-6.1,16.4v35.5h-6.1v-62.3h6.1v12.4l0,0c4.1-8.3,12.4-12.4,20.5-12.4c6.1,0,12.4,2,16.4,6.1
	c4.1,4.1,6.1,10.3,6.1,18.6v37.6L1215.3,2976.8L1215.3,2976.8z M1343.9,2974.6v-87.5h41.8v6.1h-35.5v35.5h33.5v6.1h-33.5v35.5h37.6
	v6.1L1343.9,2974.6L1343.9,2974.6z M1477.3,2943.3l20.5,31.3h-6.1l-16.4-27.3l0,0l-2,4.1c0,0,0,2-2,2l-14.4,20.5h-6.1l20.5-31.3
	l-20.5-31.3h6.1l14.4,22.7c2,2,2,4.1,4.1,6.1l0,0l4.1-4.1l14.4-22.7h6.1L1477.3,2943.3L1477.3,2943.3z M1568.7,2964.3L1568.7,2964.3
	v39.6h-6.1v-91.6h6.1v12.4l0,0c2-4.1,6.1-8.3,10.3-10.3c4.1-2,8.3-4.1,14.4-4.1c8.3,0,14.4,2,18.6,8.3c4.1,6.1,6.1,12.4,6.1,22.7
	s-2,18.6-8.3,24.7c-4.1,6.1-12.4,10.3-20.5,10.3C1581.1,2976.3,1575,2972.6,1568.7,2964.3L1568.7,2964.3z M1568.7,2939.1v8.3
	c0,6.1,2,12.4,6.1,16.4c4.1,4.1,8.3,6.1,16.4,6.1c6.1,0,12.4-2,16.4-8.3c4.1-6.1,6.1-12.4,6.1-20.5c0-8.3-2-14.4-6.1-18.6
	c-4.1-4.1-8.3-6.1-14.4-6.1c-8.3,0-12.4,2-16.4,8.3C1570.9,2926.9,1568.7,2933,1568.7,2939.1L1568.7,2939.1z M1687.2,2943.3
	c0,8.3,2,14.4,6.1,20.5c4.1,4.1,10.3,8.3,16.4,6.1c6.1,0,14.4-2,20.5-8.3v6.1c-6.1,4.1-14.4,6.1-22.7,6.1c-8.3,0-14.4-2-18.6-8.3
	c-4.1-6.1-8.3-14.4-8.3-24.7c0-8.3,2-16.4,8.3-22.7c6.1-6.1,12.4-10.3,20.5-10.3c8.3,0,14.4,2,18.6,8.3c4.1,6.1,6.1,12.4,6.1,22.7v2
	L1687.2,2943.3L1687.2,2943.3z M1728.8,2937.2c0-6.1-2-12.4-6.1-16.4c-4.1-4.1-8.3-6.1-12.4-6.1c-6.1,0-10.3,2-14.4,6.1
	c-4.1,4.1-6.1,10.3-6.1,16.4H1728.8L1728.8,2937.2z M1830.2,2916.6c-2-2-4.1-2-6.1-2c-4.1,0-8.3,2-12.4,8.3
	c-4.1,4.1-4.1,12.4-4.1,22.7v29.3h-6.1v-62.3h6.1v14.4l0,0c2-4.1,4.1-8.3,6.1-10.3c2-2,6.1-4.1,10.3-4.1c2,0,4.1,0,6.1,2v2H1830.2z
	 M1925.9,2972.6c-2,2-6.1,2-8.3,2c-8.3,0-14.4-6.1-14.4-16.4v-41.8H1893v-4.1h10.3v-16.4h2h2v18.6h16.4v4.1h-16.4v41.8
	c0,4.1,0,8.3,2,10.3s4.1,2,6.1,2c2,0,4.1,0,8.3-2L1925.9,2972.6z"/>
<g>
	<path fill="none" stroke="#FFFFFF" stroke-width="20" stroke-miterlimit="10" d="M297.3,77.5c-35.5,0-69.6,6.8-100.7,18.2
		C91,136,16.7,237.4,16.7,353.2c0,133.7,95.8,244.7,224,270.2c18.2,3.6,37.8,5.5,57.3,5.5c2.5,0,4.8,0,7.3,0l4.8,135.5
		c122.6-109.2,212.9-196.5,249-310.6c12.8-31.1,19.5-65.3,19.5-101.2C578.6,200.8,452.9,77.5,297.3,77.5z"/>
	<path id="path3398" fill="#FFFFFF" d="M362.8,475.6l-29.1-36.8c-1.6-2-2.9-3.1-3.8-3.8l-1-0.6l-0.4,1l-6.6,29.7l-1.1,6.1
		c-1.9,6.3-6,12.8-14.3,14.4l-5.1,0.3h-33.7c-59.9,0-114-85.3-151.9-191.7l-0.3-1c-1.3-6.4-1.9-13.5,1.2-19.2
		c3.6-6.6,10.5-8.7,17.7-8.9l51.8,0.4c3.2,0,6,2.1,7,5.2c11.6,38.3,25.9,61.6,43.4,88.3l0.5,0.9c1.9,4,5.9,2.9,7.9-0.3l1.2-3.7
		l0-60.1c0-8.8-4-10.1-13.8-11.5c-4.5-0.6-7.3-5.2-5.9-9.5c4.7-14.9,20.2-22.6,41.6-22.6l19.7-0.5c16,0,30.4,6.9,30.4,27.3v79
		l1.4,0.8c2.6,0.9,7.8,1.1,11.9-5.4c17.9-25.3,38.6-55.5,41.5-71.4c0.1-0.6,0.3-1.3,0.6-1.8c3.7-7.7,13.6-13.1,17.7-14.3
		c0.6-0.2,1.7-0.5,3-0.5l53.9,0l3.3,0c1.3,0.2,2.5,0.4,3.7,0.9c3.2,1.2,5.5,3.3,7,5.7c2.9,4.8,2.5,10.2,2.8,12.3
		c0.1,0.7,0.1,1.5,0,2.2c-5.1,31.6-41.4,67.1-56.7,90.1c-3.9,5.4-4,9.5-0.3,13.9l50.8,63.5c5.9,8.4,5.5,17.5-0.7,24.1
		c-4.1,4.3-10,6.7-16.2,7.4l-5.9,0.2H382l1-0.1c-7.1,0.9-12.6-2-16.7-6.2L362.8,475.6z M382,471.3l54.3,0c5.7,0.3,9.6-1.4,11.1-3
		c0.5-0.5,1.2-1.4,0.5-3.3l-1.2-2.1L396.5,400c-8.6-10.5-7.2-22-0.3-31.5c14.5-21.9,45.8-53.2,53.2-79l1-4.4l-0.3-2.8l-0.4-2.1h-1.5
		h-53.1l-1.7,0.8c-1.6,0.9-3.7,2.3-5.1,3.7l-1.5,1.8l-1.8,6.5c-6.2,17.5-21.9,40.8-35.2,59.8l-6.4,9.1l-4.1,5
		c-10.8,10.5-26.7,8.6-33.2-0.2c-1.5-2.1-2.7-4.7-2.7-7.8v-79.8c0-9.5-4.3-12.6-15.6-12.6L268,267c-9.5,0-16,1.6-20.3,4l-2.4,1.6
		l1.7,0.6c7.2,3.2,13.7,9.5,13.7,22.7l-0.1,61c-1.4,19-24.7,27.4-35.1,12.6l-1.4-2.4c-15.5-23.7-29.1-45.6-40.5-77.7l-3-9.2
		l-46.3-0.3c-4.8,0.1-5,1.4-5,1.3c-0.3,0.5-0.7,2-0.3,5.3l0.6,3.5l7.2,19.5c37.8,97.9,85.7,161.9,130.6,161.9l34,0
		c4.6,0.2,5.6-4.9,5.8-8.4l0.2-1.1l6.8-30.3l0.2-0.7c0.9-2.8,2.4-5.5,4.6-7.6c3-2.9,7-4.2,11.1-3.6c5.8,0.8,10.8,4.9,15,9.9
		l29.4,37.3c3,4.3,5,4.7,6.5,4.6L382,471.3z"/>
</g>
</svg>
