<?xml version="1.0" encoding="utf-8"?>
<!-- Generator: Adobe Illustrator 18.1.1, SVG Export Plug-In . SVG Version: 6.00 Build 0)  -->
<svg version="1.1" id="Слой_1" xmlns="http://www.w3.org/2000/svg" xmlns:xlink="http://www.w3.org/1999/xlink" x="0px" y="0px"
	 viewBox="0 0 147.4 51.1" enable-background="new 0 0 147.4 51.1" xml:space="preserve">
<rect x="-56.8" y="-38" display="none" fill-rule="evenodd" clip-rule="evenodd" fill="#FFFFFF" width="260.9" height="147.4"/>
<g>
	<path fill-rule="evenodd" clip-rule="evenodd" fill="#FFFFFF" d="M9,50.2c-0.9,0.6-2,0.9-3.3,0.9c-1.7,0-3.1-0.6-4.1-1.8
		C0.5,48,0,46.4,0,44.4c0-2.1,0.6-3.8,1.8-5.1c1.2-1.3,2.7-2,4.5-2c0.9,0,1.9,0.2,2.8,0.6v1.3c-0.9-0.6-1.9-0.9-2.9-0.9
		c-1.5,0-2.6,0.6-3.6,1.7c-0.9,1.1-1.4,2.6-1.4,4.3c0,1.7,0.4,3.1,1.2,4.1c0.8,1,1.9,1.6,3.3,1.6C7,50,8.1,49.7,9,49V50.2L9,50.2z
		 M17,51.1c-1.8,0-3.3-0.6-4.3-1.9c-1.1-1.3-1.6-2.9-1.6-4.9c0-2.2,0.6-3.9,1.7-5.1c1.1-1.2,2.6-1.9,4.4-1.9c1.8,0,3.2,0.6,4.2,1.8
		c1,1.2,1.5,2.9,1.5,5.1c0,2-0.5,3.7-1.6,5C20.2,50.5,18.8,51.1,17,51.1L17,51.1z M17.1,38.4c-1.5,0-2.6,0.5-3.5,1.6
		c-0.9,1-1.3,2.5-1.3,4.4c0,1.7,0.4,3.1,1.3,4.2c0.9,1,2,1.6,3.5,1.6c1.5,0,2.7-0.5,3.5-1.5c0.8-1,1.2-2.5,1.2-4.3
		c0-1.9-0.4-3.3-1.2-4.3C19.7,38.9,18.5,38.4,17.1,38.4L17.1,38.4z M34.4,50.8v-7.7c0-3.2-1.1-4.8-3.2-4.8c-1.2,0-2.2,0.5-3,1.4
		c-0.8,0.9-1.2,2.1-1.2,3.5v7.6H26V37.6h1.1V40h0c0.9-1.8,2.3-2.7,4.3-2.7c1.3,0,2.4,0.5,3.1,1.4c0.7,0.9,1.1,2.3,1.1,4.1v8H34.4
		L34.4,50.8z M44.2,50.6c-0.6,0.3-1.1,0.4-1.6,0.4c-1.8,0-2.8-1.2-2.8-3.5v-8.9h-2.2v-1.1h2.2v-3.4c0.2-0.1,0.4-0.1,0.6-0.2
		c0.2-0.1,0.4-0.1,0.6-0.2v3.8h3.3v1.1h-3.3v8.7c0,0.9,0.1,1.6,0.4,2c0.3,0.4,0.7,0.6,1.4,0.6c0.5,0,1-0.2,1.5-0.5V50.6L44.2,50.6z
		 M54.1,50.8v-2.6h0c-0.4,0.9-1,1.6-1.7,2.2c-0.8,0.5-1.6,0.8-2.5,0.8c-1.2,0-2.1-0.4-2.8-1.1c-0.7-0.7-1-1.6-1-2.7
		c0-2.3,1.4-3.7,4.3-4.2l3.8-0.6c0-2.8-1-4.2-3-4.2c-1.4,0-2.7,0.6-4,1.8v-1.4c0.5-0.4,1.1-0.7,1.9-1c0.8-0.3,1.5-0.4,2.2-0.4
		c1.3,0,2.3,0.4,3,1.3c0.7,0.8,1.1,2.1,1.1,3.7v8.6H54.1L54.1,50.8z M50.7,44.2c-1.3,0.2-2.2,0.5-2.8,1c-0.5,0.4-0.8,1.2-0.8,2.2
		c0,0.8,0.2,1.4,0.7,1.9c0.5,0.5,1.2,0.8,2.1,0.8c1.2,0,2.2-0.5,3-1.4c0.8-0.9,1.2-2.2,1.2-3.6v-1.3L50.7,44.2L50.7,44.2z
		 M67.1,50.2c-0.9,0.6-2,0.9-3.3,0.9c-1.7,0-3.1-0.6-4.1-1.8c-1-1.2-1.6-2.8-1.6-4.8c0-2.1,0.6-3.8,1.8-5.1c1.2-1.3,2.7-2,4.5-2
		c0.9,0,1.9,0.2,2.8,0.6v1.3c-0.9-0.6-1.9-0.9-2.9-0.9c-1.5,0-2.6,0.6-3.6,1.7c-0.9,1.1-1.4,2.6-1.4,4.3c0,1.7,0.4,3.1,1.2,4.1
		c0.8,1,1.9,1.6,3.3,1.6c1.3,0,2.3-0.4,3.3-1.1V50.2L67.1,50.2z M75,50.6c-0.6,0.3-1.1,0.4-1.6,0.4c-1.8,0-2.8-1.2-2.8-3.5v-8.9
		h-2.2v-1.1h2.2v-3.4c0.2-0.1,0.4-0.1,0.6-0.2c0.2-0.1,0.4-0.1,0.6-0.2v3.8H75v1.1h-3.3v8.7c0,0.9,0.1,1.6,0.4,2
		c0.3,0.4,0.7,0.6,1.4,0.6c0.5,0,1-0.2,1.5-0.5V50.6L75,50.6z M92.4,50.2c-0.9,0.6-2,0.9-3.3,0.9c-1.7,0-3.1-0.6-4.1-1.8
		c-1-1.2-1.6-2.8-1.6-4.8c0-2.1,0.6-3.8,1.8-5.1c1.2-1.3,2.7-2,4.5-2c0.9,0,1.9,0.2,2.8,0.6v1.3c-0.9-0.6-1.9-0.9-2.9-0.9
		c-1.5,0-2.6,0.6-3.6,1.7c-0.9,1.1-1.4,2.6-1.4,4.3c0,1.7,0.4,3.1,1.2,4.1c0.8,1,1.9,1.6,3.3,1.6c1.3,0,2.3-0.4,3.3-1.1V50.2
		L92.4,50.2z M95.7,44.3c0,1.8,0.4,3.2,1.2,4.2c0.8,1,1.9,1.5,3.3,1.5c1.4,0,2.8-0.5,4.1-1.6v1.3c-1.3,1-2.7,1.5-4.3,1.5
		c-1.6,0-2.9-0.6-3.9-1.8c-1-1.2-1.5-2.9-1.5-5.2c0-1.9,0.5-3.5,1.6-4.9c1-1.3,2.4-2,4-2c1.5,0,2.7,0.6,3.6,1.7
		c0.8,1.2,1.2,2.7,1.2,4.7v0.5H95.7L95.7,44.3z M103.7,43.2c0-1.5-0.4-2.7-1-3.5c-0.6-0.8-1.5-1.3-2.7-1.3c-1.2,0-2.1,0.4-2.9,1.2
		c-0.8,0.8-1.2,2-1.4,3.6H103.7L103.7,43.2z M116.4,50.8v-7.7c0-3.2-1.1-4.8-3.2-4.8c-1.2,0-2.2,0.5-3,1.4c-0.8,0.9-1.2,2.1-1.2,3.5
		v7.6H108V37.6h1.1V40h0c0.9-1.8,2.3-2.7,4.3-2.7c1.3,0,2.4,0.5,3.1,1.4c0.7,0.9,1.1,2.3,1.1,4.1v8H116.4L116.4,50.8z M126.2,50.6
		c-0.6,0.3-1.1,0.4-1.6,0.4c-1.8,0-2.8-1.2-2.8-3.5v-8.9h-2.2v-1.1h2.2v-3.4c0.2-0.1,0.4-0.1,0.6-0.2c0.2-0.1,0.4-0.1,0.6-0.2v3.8
		h3.3v1.1H123v8.7c0,0.9,0.1,1.6,0.4,2c0.3,0.4,0.7,0.6,1.4,0.6c0.5,0,1-0.2,1.5-0.5V50.6L126.2,50.6z M129,44.3
		c0,1.8,0.4,3.2,1.2,4.2c0.8,1,1.9,1.5,3.3,1.5c1.4,0,2.8-0.5,4.1-1.6v1.3c-1.3,1-2.7,1.5-4.3,1.5c-1.6,0-2.9-0.6-3.9-1.8
		c-1-1.2-1.5-2.9-1.5-5.2c0-1.9,0.5-3.5,1.6-4.9c1-1.3,2.4-2,4-2c1.5,0,2.7,0.6,3.6,1.7c0.8,1.2,1.2,2.7,1.2,4.7v0.5H129L129,44.3z
		 M137,43.2c0-1.5-0.4-2.7-1-3.5c-0.6-0.8-1.5-1.3-2.7-1.3c-1.2,0-2.1,0.4-2.9,1.2c-0.8,0.8-1.2,2-1.4,3.6H137L137,43.2z
		 M147.2,38.9c-0.4-0.3-0.8-0.4-1.3-0.4c-1,0-1.8,0.5-2.5,1.6c-0.7,1.1-1,2.6-1,4.6v6.2h-1.1V37.6h1.1v2.9h0.1
		c0.3-1,0.7-1.8,1.4-2.3c0.6-0.6,1.3-0.8,2.1-0.8c0.5,0,0.9,0.1,1.2,0.2V38.9z"/>
	<g>
		<path fill-rule="evenodd" clip-rule="evenodd" fill="#EC008C" d="M112.1,22.2c-6.2,0-11.3-5-11.3-11.1C100.8,5,105.9,0,112.1,0
			c6.2,0,11.3,5,11.3,11.1C123.3,17.2,118.3,22.2,112.1,22.2z"/>
		<path fill-rule="evenodd" clip-rule="evenodd" fill="#EC008C" d="M112.6,27.6L112,12c-0.1,0.7,11,0.9,10.9,1.5
			C120.7,18.8,117.7,22.7,112.6,27.6z"/>
	</g>
	<g>
		<path fill-rule="evenodd" clip-rule="evenodd" fill="#00AEEF" d="M120.3,22.2c-6.2,0-11.3-5-11.3-11.1C109,5,114.1,0,120.3,0
			c6.2,0,11.3,5,11.3,11.1C131.6,17.2,126.5,22.2,120.3,22.2z"/>
		<path fill-rule="evenodd" clip-rule="evenodd" fill="#00AEEF" d="M120.8,27.6L120.3,12c-0.1,0.7,11,0.9,10.8,1.5
			C128.9,18.8,126,22.7,120.8,27.6z"/>
	</g>
	<g>
		<path fill-rule="evenodd" clip-rule="evenodd" fill="#52B446" d="M127.8,22.4c-6.3,0-11.4-5-11.4-11.2C116.5,5,121.6,0,127.8,0
			c6.3,0,11.4,5,11.4,11.2C139.2,17.4,134.1,22.4,127.8,22.4z"/>
		<path fill-rule="evenodd" clip-rule="evenodd" fill="#52B446" d="M128.3,27.9l-0.6-15.8c-0.1,0.7,11.1,0.9,10.9,1.5
			C136.5,19,133.6,22.9,128.3,27.9z"/>
	</g>
	<path fill-rule="evenodd" clip-rule="evenodd" fill="#FFF200" d="M136,22.4c-6.3,0-11.4-5-11.4-11.2C124.6,5.1,129.7,0,136,0
		c6.3,0,11.4,5,11.4,11.2C147.4,17.4,142.3,22.4,136,22.4z"/>
	<path fill-rule="evenodd" clip-rule="evenodd" fill="#FFF200" d="M136.5,27.9l-0.6-15.8c-0.1,0.7,11.3,1.1,11.1,1.7
		C145.9,19.2,142,23,136.5,27.9z"/>
	<path fill-rule="evenodd" clip-rule="evenodd" fill="#FFFFFF" d="M11.6,0.4h2.6l11.5,27.1h-3.8l-3.4-8h-11l-3.2,8H0.6L11.6,0.4
		L11.6,0.4z M17,16.1l-4.2-9.7L9,16.1H17L17,16.1z M28.6,27.5V0.6h6.4c2.6,0,4.7,0.7,6.2,2c1.5,1.3,2.3,3.2,2.3,5.5
		c0,1.6-0.4,2.9-1.1,4.1c-0.7,1.1-1.8,2-3.2,2.6c0.8,0.6,1.6,1.3,2.4,2.3c0.8,1,1.9,2.7,3.3,5.1c0.9,1.5,1.6,2.7,2.1,3.5l1.4,1.9
		h-4.4L43,25.7c0-0.1-0.1-0.2-0.2-0.3L42,24.3l-1.1-2l-1.2-2.1c-0.8-1.1-1.5-2-2.1-2.6c-0.6-0.7-1.2-1.1-1.7-1.4
		c-0.5-0.3-1.4-0.4-2.6-0.4h-1v11.7H28.6L28.6,27.5z M33.4,3.9h-1.1v8.5h1.4c1.9,0,3.1-0.2,3.8-0.5c0.7-0.3,1.2-0.8,1.6-1.5
		c0.4-0.7,0.6-1.4,0.6-2.3c0-0.8-0.2-1.6-0.6-2.3c-0.4-0.7-1-1.2-1.8-1.5C36.5,4,35.2,3.9,33.4,3.9L33.4,3.9z M73.5,21.3v4.2
		c-2.7,1.6-5.8,2.3-9.4,2.3c-2.9,0-5.3-0.6-7.3-1.8c-2-1.2-3.6-2.9-4.8-5c-1.2-2.1-1.7-4.4-1.7-6.9c0-3.9,1.3-7.2,4-9.9
		c2.7-2.7,6-4,9.9-4c2.7,0,5.7,0.7,9,2.2v4.1c-3-1.8-6-2.7-8.8-2.7c-2.9,0-5.4,1-7.3,2.9c-1.9,1.9-2.9,4.4-2.9,7.3
		c0,3,1,5.4,2.9,7.3c1.9,1.9,4.4,2.9,7.3,2.9C67.5,24.2,70.5,23.2,73.5,21.3L73.5,21.3z M78,0.6h14.6V4H81.7v8.2h10.5v3.4H81.7v8.4
		h11.2v3.4H78V0.6z"/>
</g>
<path fill-rule="evenodd" clip-rule="evenodd" d="M-19.3,97.5l-0.5-1.3l-1.8,0l-0.5,1.3l-0.3,0l1.6-4.3l0.3,0l1.6,4.2L-19.3,97.5
	L-19.3,97.5z M-20.6,94c0-0.1,0-0.1-0.1-0.2c0,0,0-0.1,0-0.1h0c0,0.1-0.1,0.2-0.1,0.3l-0.7,2l1.6,0L-20.6,94L-20.6,94z M-13.7,97.5
	l0-1.8c0-0.7-0.3-1.1-0.8-1.1c-0.3,0-0.5,0.1-0.7,0.3c-0.2,0.2-0.3,0.5-0.3,0.8l0,1.7l-0.3,0l0-3l0.3,0l0,0.6h0
	c0.2-0.4,0.6-0.6,1-0.6c0.3,0,0.6,0.1,0.8,0.3c0.2,0.2,0.3,0.5,0.3,0.9l0,1.8L-13.7,97.5L-13.7,97.5z M-9.3,98.1
	c-0.1,0.3-0.2,0.5-0.4,0.6c-0.1,0.1-0.3,0.2-0.5,0.2c-0.1,0-0.2,0-0.2,0l0-0.3c0.1,0,0.2,0,0.2,0c0.2,0,0.4-0.2,0.6-0.5l0.3-0.7
	l-1.2-3l0.3,0l0.9,2.5c0,0.1,0,0.1,0,0.1c0,0,0,0.1,0,0.1h0l0.1-0.2l1-2.5l0.3,0L-9.3,98.1L-9.3,98.1z M-3.6,97.4
	c-0.1,0.1-0.3,0.1-0.4,0.1c-0.4,0-0.7-0.3-0.7-0.8l0-2l-0.5,0l0-0.2l0.5,0l0-0.8c0,0,0.1,0,0.1,0c0,0,0.1,0,0.1,0l0,0.9l0.8,0l0,0.2
	l-0.8,0l0,2c0,0.2,0,0.4,0.1,0.5c0.1,0.1,0.2,0.1,0.3,0.1c0.1,0,0.2,0,0.4-0.1L-3.6,97.4L-3.6,97.4z M-0.4,93.7
	c-0.1,0-0.1,0-0.2-0.1c0,0-0.1-0.1-0.1-0.2c0-0.1,0-0.1,0.1-0.2c0,0,0.1-0.1,0.2-0.1c0.1,0,0.1,0,0.2,0.1c0,0,0.1,0.1,0.1,0.2
	c0,0.1,0,0.1-0.1,0.2C-0.3,93.6-0.3,93.7-0.4,93.7L-0.4,93.7z M-0.5,97.5l0-3l0.3,0l0,3L-0.5,97.5L-0.5,97.5z M7,97.4l0-1.8
	C7,95.2,7,95,6.8,94.8c-0.1-0.2-0.3-0.2-0.6-0.2c-0.2,0-0.4,0.1-0.6,0.3c-0.2,0.2-0.3,0.5-0.3,0.8l0,1.8l-0.3,0l0-1.8
	c0-0.7-0.3-1-0.8-1c-0.2,0-0.5,0.1-0.6,0.3c-0.2,0.2-0.2,0.5-0.2,0.8l0,1.7l-0.3,0l0-3l0.3,0l0,0.5h0c0.2-0.4,0.5-0.6,0.9-0.6
	c0.2,0,0.4,0.1,0.6,0.2c0.2,0.1,0.3,0.3,0.3,0.5c0.1-0.2,0.2-0.4,0.4-0.5c0.2-0.1,0.4-0.2,0.6-0.2c0.7,0,1,0.4,1,1.2l0,1.9L7,97.4
	L7,97.4z M10.8,95.9c0,0.4,0.1,0.7,0.3,1c0.2,0.2,0.5,0.4,0.8,0.3c0.3,0,0.7-0.1,1-0.4l0,0.3c-0.3,0.2-0.7,0.3-1.1,0.3
	c-0.4,0-0.7-0.1-0.9-0.4c-0.2-0.3-0.4-0.7-0.4-1.2c0-0.4,0.1-0.8,0.4-1.1c0.3-0.3,0.6-0.5,1-0.5c0.4,0,0.7,0.1,0.9,0.4
	c0.2,0.3,0.3,0.6,0.3,1.1l0,0.1L10.8,95.9L10.8,95.9z M12.7,95.7c0-0.3-0.1-0.6-0.3-0.8c-0.2-0.2-0.4-0.3-0.6-0.3
	c-0.3,0-0.5,0.1-0.7,0.3c-0.2,0.2-0.3,0.5-0.3,0.8L12.7,95.7L12.7,95.7z M21,97.4l-0.6-1.2c-0.1-0.3-0.2-0.4-0.4-0.5
	c-0.1-0.1-0.3-0.1-0.4-0.1l-0.5,0l0,1.9l-0.3,0l0-4.2l1.2,0c0.4,0,0.7,0.1,0.9,0.3c0.2,0.2,0.3,0.5,0.3,0.8c0,0.3-0.1,0.6-0.3,0.8
	c-0.2,0.2-0.4,0.3-0.7,0.4l0,0c0.2,0.1,0.3,0.3,0.5,0.6l0.6,1.4L21,97.4L21,97.4z M19.1,93.4l0,1.8l0.7,0c0.3,0,0.6-0.1,0.8-0.3
	c0.2-0.2,0.3-0.4,0.3-0.7c0-0.3-0.1-0.5-0.3-0.6c-0.2-0.2-0.4-0.2-0.7-0.2L19.1,93.4L19.1,93.4z M24.7,95.9c0,0.4,0.1,0.7,0.3,1
	c0.2,0.2,0.5,0.3,0.8,0.3c0.3,0,0.7-0.1,1-0.4l0,0.3c-0.3,0.2-0.7,0.3-1.1,0.3c-0.4,0-0.7-0.1-0.9-0.4c-0.2-0.3-0.4-0.7-0.4-1.2
	c0-0.4,0.1-0.8,0.4-1.1c0.3-0.3,0.6-0.5,1-0.5c0.4,0,0.7,0.1,0.9,0.4c0.2,0.3,0.3,0.6,0.3,1.1l0,0.1L24.7,95.9L24.7,95.9z
	 M26.6,95.6c0-0.3-0.1-0.6-0.3-0.8c-0.2-0.2-0.4-0.3-0.6-0.3c-0.3,0-0.5,0.1-0.7,0.3c-0.2,0.2-0.3,0.5-0.3,0.8L26.6,95.6L26.6,95.6z
	 M30.2,97.3l0-4.5l0.3,0l0,4.5L30.2,97.3L30.2,97.3z M34,93.5c-0.1,0-0.1,0-0.2-0.1c0,0-0.1-0.1-0.1-0.2c0-0.1,0-0.1,0.1-0.2
	c0,0,0.1-0.1,0.2-0.1c0.1,0,0.1,0,0.2,0.1c0,0,0.1,0.1,0.1,0.2c0,0.1,0,0.1-0.1,0.2C34.1,93.5,34.1,93.5,34,93.5L34,93.5z
	 M33.9,97.3l0-3l0.3,0l0,3L33.9,97.3L33.9,97.3z M39.5,97.3l0-0.6h0c-0.1,0.2-0.2,0.4-0.4,0.5c-0.2,0.1-0.4,0.2-0.6,0.2
	c-0.3,0-0.5-0.1-0.7-0.2c-0.2-0.2-0.3-0.4-0.3-0.6c0-0.5,0.3-0.8,1-1l0.9-0.1c0-0.7-0.2-1-0.7-1c-0.3,0-0.7,0.1-1,0.4l0-0.3
	c0.1-0.1,0.3-0.2,0.5-0.2c0.2-0.1,0.4-0.1,0.5-0.1c0.3,0,0.6,0.1,0.7,0.3c0.2,0.2,0.3,0.5,0.3,0.8l0,2L39.5,97.3L39.5,97.3z
	 M38.6,95.8c-0.3,0-0.5,0.1-0.7,0.2c-0.1,0.1-0.2,0.3-0.2,0.5c0,0.2,0.1,0.3,0.2,0.4c0.1,0.1,0.3,0.2,0.5,0.2c0.3,0,0.5-0.1,0.7-0.3
	c0.2-0.2,0.3-0.5,0.3-0.8l0-0.3L38.6,95.8L38.6,95.8z M43.4,96.7L43.4,96.7l0,0.5l-0.3,0l0-4.5l0.3,0l0,2.1h0
	c0.1-0.2,0.3-0.4,0.5-0.5c0.2-0.1,0.4-0.2,0.7-0.2c0.4,0,0.7,0.1,0.9,0.4c0.2,0.3,0.3,0.6,0.3,1.1c0,0.5-0.1,0.9-0.4,1.2
	c-0.2,0.3-0.6,0.5-1,0.5C44,97.4,43.6,97.2,43.4,96.7L43.4,96.7z M43.4,95.6l0,0.4c0,0.3,0.1,0.6,0.3,0.8c0.2,0.2,0.4,0.3,0.8,0.3
	c0.3,0,0.6-0.1,0.8-0.4c0.2-0.3,0.3-0.6,0.3-1c0-0.4-0.1-0.7-0.3-0.9c-0.2-0.2-0.4-0.3-0.7-0.3c-0.4,0-0.6,0.1-0.8,0.4
	C43.5,95,43.4,95.3,43.4,95.6L43.4,95.6z M49,97.3l0-4.5l0.3,0l0,4.5L49,97.3L49,97.3z M52.8,95.7c0,0.4,0.1,0.7,0.3,1
	c0.2,0.2,0.5,0.3,0.8,0.3c0.3,0,0.7-0.1,1-0.4l0,0.3c-0.3,0.2-0.7,0.3-1.1,0.3c-0.4,0-0.7-0.1-0.9-0.4c-0.2-0.3-0.4-0.7-0.4-1.2
	c0-0.4,0.1-0.8,0.4-1.1c0.3-0.3,0.6-0.5,1-0.5c0.4,0,0.7,0.1,0.9,0.4c0.2,0.3,0.3,0.6,0.3,1.1l0,0.1L52.8,95.7L52.8,95.7z
	 M54.8,95.5c0-0.3-0.1-0.6-0.3-0.8c-0.2-0.2-0.4-0.3-0.6-0.3c-0.3,0-0.5,0.1-0.7,0.3c-0.2,0.2-0.3,0.5-0.3,0.8L54.8,95.5L54.8,95.5z
	 M63.7,97.1c-0.3,0.1-0.7,0.2-1.1,0.2c-0.6,0-1.1-0.2-1.4-0.6c-0.4-0.4-0.6-0.9-0.6-1.5c0-0.7,0.2-1.2,0.6-1.7
	c0.4-0.4,0.9-0.6,1.5-0.6c0.3,0,0.6,0.1,0.9,0.2l0,0.3c-0.3-0.1-0.6-0.2-0.9-0.2c-0.5,0-1,0.2-1.3,0.5c-0.3,0.4-0.5,0.8-0.5,1.4
	c0,0.6,0.2,1,0.5,1.4c0.3,0.3,0.7,0.5,1.2,0.5c0.4,0,0.7-0.1,1.1-0.2L63.7,97.1L63.7,97.1z M68.3,97.3c-0.4,0-0.8-0.1-1.1-0.4
	c-0.3-0.3-0.4-0.7-0.4-1.1c0-0.5,0.1-0.9,0.4-1.2c0.3-0.3,0.6-0.4,1.1-0.4c0.4,0,0.8,0.1,1,0.4c0.3,0.3,0.4,0.7,0.4,1.2
	c0,0.5-0.1,0.9-0.4,1.1C69.1,97.1,68.7,97.3,68.3,97.3L68.3,97.3z M68.3,94.3c-0.4,0-0.6,0.1-0.9,0.4c-0.2,0.2-0.3,0.6-0.3,1
	c0,0.4,0.1,0.7,0.3,1c0.2,0.2,0.5,0.4,0.9,0.4c0.4,0,0.6-0.1,0.8-0.4c0.2-0.2,0.3-0.6,0.3-1c0-0.4-0.1-0.8-0.3-1
	C68.9,94.4,68.7,94.3,68.3,94.3L68.3,94.3z M76.8,97.2l0-1.8c0-0.4-0.1-0.6-0.2-0.8c-0.1-0.2-0.3-0.2-0.6-0.2
	c-0.2,0-0.4,0.1-0.6,0.3c-0.2,0.2-0.3,0.5-0.3,0.8l0,1.8l-0.3,0l0-1.8c0-0.7-0.3-1-0.8-1c-0.2,0-0.5,0.1-0.6,0.3
	c-0.2,0.2-0.2,0.5-0.2,0.8l0,1.7l-0.3,0l0-3l0.3,0l0,0.5h0c0.2-0.4,0.5-0.6,0.9-0.6c0.2,0,0.4,0.1,0.6,0.2c0.2,0.1,0.3,0.3,0.3,0.5
	c0.1-0.2,0.2-0.4,0.4-0.5c0.2-0.1,0.4-0.2,0.6-0.2c1.4,0,1,2.1,1,3.1L76.8,97.2L76.8,97.2z M84.3,97.1l0-1.8c0-0.4-0.1-0.6-0.2-0.8
	c-0.1-0.2-0.3-0.2-0.6-0.2c-0.2,0-0.4,0.1-0.6,0.3c-0.2,0.2-0.3,0.5-0.3,0.8l0,1.8l-0.3,0l0-1.8c0-0.7-0.3-1-0.8-1
	c-0.2,0-0.5,0.1-0.6,0.3c-0.2,0.2-0.2,0.5-0.2,0.8l0,1.7l-0.3,0l0-3l0.3,0l0,0.5h0c0.2-0.4,0.5-0.6,0.9-0.6c0.2,0,0.4,0.1,0.6,0.2
	c0.2,0.1,0.3,0.3,0.3,0.5c0.1-0.2,0.2-0.4,0.4-0.5c0.2-0.1,0.4-0.2,0.6-0.2c0.7,0,1,0.4,1,1.2l0,1.9L84.3,97.1L84.3,97.1z
	 M89.9,97.1l0-0.6h0c-0.2,0.4-0.5,0.6-1,0.6c-0.7,0-1.1-0.4-1.1-1.3l0-1.8l0.3,0l0,1.7c0,0.4,0.1,0.7,0.2,0.9
	c0.1,0.2,0.3,0.3,0.6,0.3c0.3,0,0.5-0.1,0.7-0.3c0.2-0.2,0.3-0.5,0.3-0.8l0-1.7l0.3,0l0,3L89.9,97.1L89.9,97.1z M95.7,97.1l0-1.8
	c0-0.7-0.3-1.1-0.8-1.1c-0.3,0-0.5,0.1-0.7,0.3c-0.2,0.2-0.3,0.5-0.3,0.8l0,1.7l-0.3,0l0-3l0.3,0l0,0.6h0c0.2-0.4,0.6-0.6,1-0.6
	c0.3,0,0.6,0.1,0.8,0.3c0.2,0.2,0.3,0.5,0.3,0.9l0,1.8L95.7,97.1L95.7,97.1z M99.5,93.3c-0.1,0-0.1,0-0.2-0.1c0,0-0.1-0.1-0.1-0.2
	c0-0.1,0-0.1,0.1-0.2c0,0,0.1-0.1,0.2-0.1c0.1,0,0.1,0,0.2,0.1c0,0,0.1,0.1,0.1,0.2c0,0.1,0,0.1-0.1,0.2
	C99.6,93.3,99.6,93.3,99.5,93.3L99.5,93.3z M99.4,97.1l0-3l0.3,0l0,3L99.4,97.1L99.4,97.1z M105.1,96.9c-0.2,0.1-0.5,0.2-0.8,0.2
	c-0.4,0-0.7-0.1-1-0.4c-0.3-0.3-0.4-0.7-0.4-1.1c0-0.5,0.1-0.9,0.4-1.2c0.3-0.3,0.6-0.5,1.1-0.5c0.2,0,0.5,0,0.7,0.1l0,0.3
	c-0.2-0.1-0.5-0.2-0.7-0.2c-0.4,0-0.6,0.1-0.9,0.4c-0.2,0.3-0.3,0.6-0.3,1c0,0.4,0.1,0.7,0.3,0.9c0.2,0.2,0.5,0.4,0.8,0.4
	c0.3,0,0.6-0.1,0.8-0.2L105.1,96.9L105.1,96.9z M110.1,97l0-0.6h0c-0.1,0.2-0.2,0.4-0.4,0.5c-0.2,0.1-0.4,0.2-0.6,0.2
	c-0.3,0-0.5-0.1-0.7-0.2c-0.2-0.2-0.3-0.4-0.3-0.6c0-0.5,0.3-0.8,1-1l0.9-0.1c0-0.7-0.2-1-0.7-1c-0.3,0-0.7,0.1-1,0.4l0-0.3
	c0.1-0.1,0.3-0.2,0.5-0.2c0.2-0.1,0.4-0.1,0.5-0.1c0.3,0,0.6,0.1,0.7,0.3c0.2,0.2,0.3,0.5,0.3,0.8l0,2L110.1,97L110.1,97z
	 M109.3,95.5c-0.3,0-0.5,0.1-0.7,0.2c-0.1,0.1-0.2,0.3-0.2,0.5c0,0.2,0.1,0.3,0.2,0.4c0.1,0.1,0.3,0.2,0.5,0.2
	c0.3,0,0.5-0.1,0.7-0.3c0.2-0.2,0.3-0.5,0.3-0.8l0-0.3L109.3,95.5L109.3,95.5z M115,97c-0.1,0.1-0.3,0.1-0.4,0.1
	c-0.4,0-0.7-0.3-0.7-0.8l0-2l-0.5,0l0-0.2l0.5,0l0-0.8c0,0,0.1,0,0.1,0c0,0,0.1,0,0.1,0l0,0.9l0.8,0l0,0.2l-0.8,0l0,2
	c0,0.2,0,0.4,0.1,0.5c0.1,0.1,0.2,0.1,0.3,0.1c0.1,0,0.2,0,0.4-0.1L115,97L115,97z M118.2,93.2c-0.1,0-0.1,0-0.2-0.1
	c0,0-0.1-0.1-0.1-0.2c0-0.1,0-0.1,0.1-0.2c0,0,0.1-0.1,0.2-0.1c0.1,0,0.1,0,0.2,0.1c0,0,0.1,0.1,0.1,0.2c0,0.1,0,0.1-0.1,0.2
	C118.4,93.2,118.3,93.2,118.2,93.2L118.2,93.2z M118.1,97l0-3l0.3,0l0,3L118.1,97L118.1,97z M123.1,97.1c-0.4,0-0.8-0.1-1.1-0.4
	c-0.3-0.3-0.4-0.7-0.4-1.1c0-0.5,0.1-0.9,0.4-1.2c0.3-0.3,0.6-0.4,1.1-0.4c0.4,0,0.8,0.1,1,0.4c0.3,0.3,0.4,0.7,0.4,1.2
	c0,0.5-0.1,0.9-0.4,1.1C123.9,96.9,123.5,97.1,123.1,97.1L123.1,97.1z M123.1,94.1c-0.4,0-0.6,0.1-0.9,0.4c-0.2,0.2-0.3,0.6-0.3,1
	c0,0.4,0.1,0.7,0.3,1c0.2,0.2,0.5,0.4,0.9,0.4c0.4,0,0.6-0.1,0.8-0.4c0.2-0.2,0.3-0.6,0.3-1c0-0.4-0.1-0.8-0.3-1
	C123.7,94.2,123.4,94.1,123.1,94.1L123.1,94.1z M129.8,97l0-1.8c0-0.7-0.3-1.1-0.8-1.1c-0.3,0-0.5,0.1-0.7,0.3
	c-0.2,0.2-0.3,0.5-0.3,0.8l0,1.7l-0.3,0l0-3l0.3,0l0,0.6h0c0.2-0.4,0.6-0.6,1-0.6c0.3,0,0.6,0.1,0.8,0.3c0.2,0.2,0.3,0.5,0.3,0.9
	l0,1.8L129.8,97L129.8,97z M136,96.9l0-4.2l2,0l0,0.3l-1.7,0l0,1.7l1.6,0l0,0.3l-1.6,0l0,1.7l1.8,0l0,0.3L136,96.9L136,96.9z
	 M142.4,95.4l1,1.5l-0.3,0l-0.8-1.3h0l-0.1,0.2c0,0,0,0.1-0.1,0.1l-0.7,1l-0.3,0l1-1.5l-1-1.5l0.3,0l0.7,1.1
	c0.1,0.1,0.1,0.2,0.2,0.3h0l0.2-0.2l0.7-1.1l0.3,0L142.4,95.4L142.4,95.4z M146.8,96.4L146.8,96.4l0,1.9l-0.3,0l0-4.4l0.3,0l0,0.6h0
	c0.1-0.2,0.3-0.4,0.5-0.5c0.2-0.1,0.4-0.2,0.7-0.2c0.4,0,0.7,0.1,0.9,0.4c0.2,0.3,0.3,0.6,0.3,1.1c0,0.5-0.1,0.9-0.4,1.2
	c-0.2,0.3-0.6,0.5-1,0.5C147.4,97,147.1,96.8,146.8,96.4L146.8,96.4z M146.8,95.2l0,0.4c0,0.3,0.1,0.6,0.3,0.8
	c0.2,0.2,0.4,0.3,0.8,0.3c0.3,0,0.6-0.1,0.8-0.4c0.2-0.3,0.3-0.6,0.3-1c0-0.4-0.1-0.7-0.3-0.9c-0.2-0.2-0.4-0.3-0.7-0.3
	c-0.4,0-0.6,0.1-0.8,0.4C146.9,94.6,146.8,94.9,146.8,95.2L146.8,95.2z M152.5,95.4c0,0.4,0.1,0.7,0.3,1c0.2,0.2,0.5,0.4,0.8,0.3
	c0.3,0,0.7-0.1,1-0.4l0,0.3c-0.3,0.2-0.7,0.3-1.1,0.3c-0.4,0-0.7-0.1-0.9-0.4c-0.2-0.3-0.4-0.7-0.4-1.2c0-0.4,0.1-0.8,0.4-1.1
	c0.3-0.3,0.6-0.5,1-0.5c0.4,0,0.7,0.1,0.9,0.4c0.2,0.3,0.3,0.6,0.3,1.1l0,0.1L152.5,95.4L152.5,95.4z M154.5,95.1
	c0-0.3-0.1-0.6-0.3-0.8c-0.2-0.2-0.4-0.3-0.6-0.3c-0.3,0-0.5,0.1-0.7,0.3c-0.2,0.2-0.3,0.5-0.3,0.8L154.5,95.1L154.5,95.1z
	 M159.4,94.1c-0.1-0.1-0.2-0.1-0.3-0.1c-0.2,0-0.4,0.1-0.6,0.4c-0.2,0.2-0.2,0.6-0.2,1.1l0,1.4l-0.3,0l0-3l0.3,0l0,0.7h0
	c0.1-0.2,0.2-0.4,0.3-0.5c0.1-0.1,0.3-0.2,0.5-0.2c0.1,0,0.2,0,0.3,0.1L159.4,94.1L159.4,94.1z M164,96.8c-0.1,0.1-0.3,0.1-0.4,0.1
	c-0.4,0-0.7-0.3-0.7-0.8l0-2l-0.5,0l0-0.2l0.5,0l0-0.8c0,0,0.1,0,0.1,0c0,0,0.1,0,0.1,0l0,0.9l0.8,0l0,0.2l-0.8,0l0,2
	c0,0.2,0,0.4,0.1,0.5c0.1,0.1,0.2,0.1,0.3,0.1c0.1,0,0.2,0,0.4-0.1L164,96.8z"/>
</svg>
