<?xml version="1.0" encoding="utf-8"?>
<!-- Generator: Adobe Illustrator 18.1.1, SVG Export Plug-In . SVG Version: 6.00 Build 0)  -->
<svg version="1.1" id="Слой_1" xmlns="http://www.w3.org/2000/svg" xmlns:xlink="http://www.w3.org/1999/xlink" x="0px" y="0px"
	 viewBox="439.8 -16.2 951.1 1113.1" enable-background="new 439.8 -16.2 951.1 1113.1" xml:space="preserve">
<rect x="-3487.1" y="229.8" display="none" fill="#FFFFFF" width="8146.2" height="4602.4"/>
<g>
	<g>
		<path fill="none" stroke="#FFFFFF" stroke-width="20" stroke-miterlimit="10" d="M913,23.9c-53.3,0-104.6,10.2-151.3,27.3
			C603,111.8,491.4,264.2,491.4,438.2c0,200.9,144,367.7,336.6,406c27.3,5.4,56.8,8.3,86.1,8.3c3.8,0,7.2,0,11,0l7.2,203.6
			c184.2-164.1,319.9-295.3,374.2-466.7c19.2-46.7,29.3-98.1,29.3-152.1C1335.7,209.2,1146.8,23.9,913,23.9z"/>
	</g>
	<g>
		<path fill="none" stroke="#FFFFFF" stroke-width="24" stroke-miterlimit="10" d="M1096.7,569.3c-1.1-3.3-8.2-8.3-21.1-14.7
			c-3.5-2-8.6-4.8-15-8.4c-6.5-3.5-12.4-6.8-17.6-9.7c-5.3-2.9-10.2-5.8-14.9-8.6c-0.8-0.6-3-2.1-6.9-4.9s-7.2-4.7-9.8-5.9
			c-2.7-1.3-5.4-1.9-7.9-1.9c-3.7,0-8.4,2.6-13.9,7.9c-5.6,5.3-10.6,11-15.3,17.2c-4.7,6.2-9.5,12-14.7,17.2
			c-5.2,5.3-9.5,7.9-12.8,7.9c-1.7,0-3.8-0.5-6.2-1.4c-2.5-1-4.4-1.8-5.7-2.3c-1.3-0.7-3.5-1.9-6.6-3.9c-3.1-1.9-4.9-3-5.3-3.2
			c-25.4-14.1-47.2-30.2-65.4-48.4c-18.1-18.2-34.3-39.9-48.4-65.4c-0.2-0.4-1.3-2.1-3.2-5.3c-1.9-3.1-3.2-5.4-3.9-6.7
			c-0.7-1.3-1.5-3.2-2.3-5.7c-0.9-2.5-1.4-4.6-1.4-6.2c0-3.3,2.6-7.6,7.9-12.8s11-10.1,17.2-14.7c6.2-4.7,12-9.7,17.2-15.3
			c5.3-5.6,7.9-10.2,7.9-13.9c0-2.6-0.7-5.3-1.9-7.9c-1.3-2.7-3.3-5.9-5.9-9.8c-2.7-3.9-4.3-6.2-4.9-6.9c-2.8-4.7-5.7-9.5-8.6-14.9
			c-2.9-5.3-6.2-11.2-9.7-17.6c-3.5-6.5-6.3-11.5-8.4-15c-6.6-13.2-11.6-20.2-14.9-21.2c-1.3-0.6-3.2-0.9-5.8-0.9
			c-5,0-11.5,0.9-19.6,2.8c-8.1,1.9-14.4,3.8-19.1,5.8c-9.3,3.9-19.1,15.2-29.5,33.9c-9.5,17.4-14.2,34.7-14.2,51.7
			c0,5,0.3,9.8,1,14.6c0.7,4.8,1.9,10,3.5,16s3,10.3,4,13.2c1,2.8,2.9,8,5.7,15.4c2.8,7.4,4.5,12,5,13.6
			c6.5,18.2,14.2,34.4,23.1,48.7c14.6,23.8,34.6,48.2,59.9,73.6c25.3,25.3,49.9,45.3,73.6,59.9c14.3,8.9,30.5,16.6,48.7,23.1
			c1.7,0.6,6.2,2.2,13.6,5c7.4,2.8,12.6,4.7,15.4,5.7c2.8,1,7.3,2.3,13.2,4s11.3,2.8,16,3.5c4.8,0.7,9.6,1,14.6,1
			c17,0,34.3-4.8,51.7-14.2c18.7-10.4,30-20.2,33.9-29.5c2-4.7,4-11,5.8-19.1c1.9-8.1,2.8-14.6,2.8-19.6
			C1097.6,572.5,1097.3,570.6,1096.7,569.3z"/>
	</g>
</g>
</svg>
