<?xml version="1.0" encoding="utf-8"?>
<!-- Generator: Adobe Illustrator 18.1.1, SVG Export Plug-In . SVG Version: 6.00 Build 0)  -->
<svg version="1.1" id="Слой_1" xmlns="http://www.w3.org/2000/svg" xmlns:xlink="http://www.w3.org/1999/xlink" x="0px" y="0px"
	 viewBox="439.8 -16.2 951.1 1113.1" enable-background="new 439.8 -16.2 951.1 1113.1" xml:space="preserve">
<rect x="-3487.1" y="229.8" display="none" fill="#FFFFFF" width="8146.2" height="4602.4"/>
<g>
	<g>
		<path fill="none" stroke="#FFFFFF" stroke-width="20" stroke-miterlimit="10" d="M914.8,24.2c-53.3,0-104.6,10.2-151.3,27.3
			c-158.7,60.6-270.3,212.9-270.3,386.9c0,200.9,144,367.7,336.6,406c27.3,5.4,56.8,8.3,86.1,8.3c3.8,0,7.2,0,11,0l7.2,203.6
			c184.2-164.1,319.9-295.3,374.2-466.7c19.2-46.7,29.3-98.1,29.3-152.1C1337.5,209.5,1148.6,24.2,914.8,24.2z"/>
	</g>
	<g>
		<path fill="#FFFFFF" d="M1108,289.3c-7.1-7.1-15.8-10.8-25.9-10.8H744.5c-10.1,0-18.7,3.6-25.9,10.8c-7.1,7.1-10.8,15.8-10.8,25.9
			v249.5c0,10.1,3.6,18.7,10.8,25.9s15.8,10.8,25.9,10.8h337.6c10.1,0,18.7-3.6,25.9-10.8c7.1-7.1,10.8-15.8,10.8-25.9V315.3
			C1118.8,305.2,1115.2,296.5,1108,289.3z M1089.4,564.8c0,2-0.7,3.7-2.2,5.1c-1.4,1.4-3.1,2.2-5.1,2.2H744.5c-2,0-3.7-0.7-5.1-2.2
			c-1.4-1.4-2.2-3.1-2.2-5.1V388.6c4.8,5.5,10.1,10.6,15.7,15.2c41,31.5,73.6,57.4,97.7,77.5c7.8,6.6,14.1,11.7,19,15.3
			c4.9,3.7,11.5,7.4,19.8,11.1c8.4,3.8,16.1,5.6,23.5,5.6h0.2h0.2c7.3,0,15.2-1.8,23.5-5.6c8.4-3.8,14.9-7.5,19.8-11.1
			c4.9-3.7,11.2-8.8,19-15.3c24.2-20.2,56.7-46,97.7-77.5c5.6-4.6,10.9-9.6,15.8-15.1V564.8L1089.4,564.8z M1089.4,321.2v2.5
			c0,9-3.5,19-10.7,30.1c-7.1,11.1-14.8,19.9-23.1,26.5c-29.5,23.2-60.2,47.5-92,72.7c-0.9,0.8-3.6,3.1-8,6.7
			c-4.4,3.8-8,6.6-10.5,8.6c-2.6,2-6,4.4-10.2,7.2c-4.2,2.8-8,4.9-11.6,6.3c-3.5,1.4-6.8,2.1-9.9,2.1h-0.2H913
			c-3.1,0-6.3-0.7-9.9-2.1c-3.5-1.4-7.4-3.5-11.6-6.3c-4.2-2.8-7.6-5.2-10.2-7.2c-2.6-2-6.1-4.8-10.5-8.6s-7.1-6-8-6.7
			c-31.8-25.2-62.5-49.5-92-72.7c-22.5-17.8-33.7-39.4-33.7-65.1c0-2,0.7-3.7,2.2-5.1c1.4-1.4,3.1-2.2,5.1-2.2H1082
			c1.2,0.7,2.3,0.9,3.2,0.6c0.9-0.3,1.6,0.2,2.1,1.7c0.5,1.4,0.9,2.2,1.3,2.1c0.4-0.1,0.6,0.9,0.7,2.9c0.1,2,0.1,3,0.1,3V321.2
			L1089.4,321.2z"/>
	</g>
</g>
</svg>
