<?xml version="1.0" encoding="utf-8"?>
<!-- Generator: Adobe Illustrator 18.1.1, SVG Export Plug-In . SVG Version: 6.00 Build 0)  -->
<svg version="1.1" id="Слой_1" xmlns="http://www.w3.org/2000/svg" xmlns:xlink="http://www.w3.org/1999/xlink" x="0px" y="0px"
	 viewBox="0 112.3 841.9 303" enable-background="new 0 112.3 841.9 303" xml:space="preserve">
<rect x="-317.6" y="250.8" display="none" fill="#FFFFFF" width="1466.8" height="828.7"/>
<g>
	<path fill="#FFFFFF" d="M57.1,402.6c-5,3.3-11.3,5-18.5,5c-9.6,0-17.4-3.3-23.1-10.2c-6.1-7.2-8.9-16.3-8.9-27.4
		c0-11.8,3.3-21.3,10.2-28.7c6.8-7.4,15.2-11.3,25.3-11.3c5,0,10.7,1.1,15.7,3.3v7.4c-5-3.3-10.7-5-16.3-5c-8.5,0-14.6,3.3-20.2,9.6
		c-5,6.1-7.9,14.6-7.9,24.2s2.2,17.4,6.7,23.1c4.5,5.6,10.7,9,18.5,9c7.4,0,13.5-1.7,18.5-5.6V402.6L57.1,402.6z M102.2,407.6
		c-10.2,0-18.5-3.3-24.2-10.7c-6.1-7.4-9-16.3-9-27.6c0-12.4,3.3-22,9.6-28.7c6.1-6.7,14.6-10.7,24.8-10.7s18,3.3,23.7,10.2
		c5.6,6.7,8.5,16.3,8.5,28.7c0,11.3-2.8,20.7-9,28.1C120.2,404.3,112.3,407.6,102.2,407.6L102.2,407.6z M102.8,336.2
		c-8.5,0-14.6,2.8-19.6,9c-5,5.6-7.4,14.1-7.4,24.8c0,9.6,2.2,17.4,7.4,23.7c5,5.6,11.3,9,19.6,9s15.2-2.8,19.6-8.5
		c4.5-5.6,6.7-14.1,6.7-24.2c0-10.7-2.2-18.5-6.7-24.2C117.4,339.1,110.6,336.2,102.8,336.2L102.8,336.2z M200,405.9v-43.3
		c0-18-6.1-27-18-27c-6.7,0-12.4,2.8-16.8,7.9c-4.5,5-6.7,11.8-6.7,19.6v42.7h-5.6v-74.2h6.1v13.5l0,0c5-10.2,12.9-15.2,24.2-15.2
		c7.4,0,13.5,2.8,17.4,7.9c3.9,5,6.1,12.9,6.1,23.1v45H200V405.9z M255.1,404.8c-3.3,1.7-6.1,2.2-9,2.2c-10.2,0-15.7-6.7-15.7-19.6
		v-50h-12.4v-6.1h12.4v-19.1c1.1-0.6,2.2-0.6,3.3-1.1c1.1-0.6,2.2-0.6,3.3-1.1v21.3h18.5v6.1H237v48.9c0,5,0.6,9,2.2,11.3
		c1.7,2.2,3.9,3.3,7.9,3.3c2.8,0,5.6-1.1,8.5-2.8v6.7H255.1z M310.8,405.9v-14.6l0,0c-2.2,5-5.6,9-9.6,12.4c-4.5,2.8-9,4.5-14.1,4.5
		c-6.7,0-11.8-2.2-15.7-6.1s-5.6-9-5.6-15.2c0-12.9,7.9-20.7,24.2-23.7l21.3-3.3c0-15.7-5.6-23.7-16.8-23.7
		c-7.9,0-15.2,3.3-22.6,10.2v-7.9c2.8-2.2,6.1-3.9,10.7-5.6c4.5-1.7,8.5-2.2,12.4-2.2c7.4,0,12.9,2.2,16.8,7.4
		c3.9,4.5,6.1,11.8,6.1,20.7v48.3h-7.4v-1.1H310.8z M291.7,368.9c-7.4,1.1-12.4,2.8-15.7,5.6c-2.8,2.2-4.5,6.7-4.5,12.4
		c0,4.5,1.1,7.9,3.9,10.7s6.7,4.5,11.8,4.5c6.7,0,12.4-2.8,16.8-7.9c4.5-5,6.7-12.4,6.7-20.2v-7.4L291.7,368.9L291.7,368.9z
		 M383.8,402.6c-5,3.3-11.3,5-18.5,5c-9.6,0-17.4-3.3-23.1-10.2c-5.6-6.7-9-15.7-9-27c0-11.8,3.3-21.3,10.2-28.7
		c6.7-7.4,15.2-11.3,25.3-11.3c5,0,10.7,1.1,15.7,3.3v7.4c-5-3.3-10.7-5-16.3-5c-8.5,0-14.6,3.3-20.2,9.6c-5,6.1-7.9,14.6-7.9,24.2
		s2.2,17.4,6.7,23.1c4.5,5.6,10.7,9,18.5,9c7.4,0,12.9-2.2,18.5-6.1L383.8,402.6L383.8,402.6z M428.3,404.8c-3.3,1.7-6.1,2.2-9,2.2
		c-10.2,0-15.7-6.7-15.7-19.6v-50h-12.4v-6.1h12.4v-19.1c1.1-0.6,2.2-0.6,3.3-1.1s2.2-0.6,3.3-1.1v21.3h18v6.1h-18.5v48.9
		c0,5,0.6,9,2.2,11.3c1.7,2.2,3.9,3.3,7.9,3.3c2.8,0,5.6-1.1,8.5-2.8L428.3,404.8L428.3,404.8z M526.1,402.6c-5,3.3-11.3,5-18.5,5
		c-9.6,0-17.4-3.3-23.1-10.2c-5.7-6.8-9-15.7-9-27c0-11.8,3.3-21.3,10.2-28.7c6.7-7.4,15.2-11.3,25.3-11.3c5,0,10.7,1.1,15.7,3.3
		v7.4c-5-3.3-10.7-5-16.3-5c-8.5,0-14.6,3.3-20.2,9.6c-5,6.1-7.9,14.6-7.9,24.2s2.2,17.4,6.7,23.1c4.5,5.6,10.7,9,18.5,9
		c7.4,0,12.9-2.2,18.5-6.1L526.1,402.6L526.1,402.6z M544.6,369.5c0,10.2,2.2,18,6.7,23.7c4.5,5.6,10.7,8.5,18.5,8.5
		c7.9,0,15.7-2.8,23.1-9v7.4c-7.4,5.6-15.2,8.5-24.2,8.5s-16.3-3.3-22-10.2c-5.6-6.7-8.5-16.3-8.5-29.2c0-10.7,2.8-19.6,9-27.6
		c5.6-7.4,13.5-11.3,22.6-11.3c8.5,0,15.2,3.3,20.2,9.6c4.5,6.7,6.7,15.2,6.7,26.4v2.8h-52.3v0.4H544.6z M589.6,363.2
		c0-8.5-2.2-15.2-5.6-19.6s-8.5-7.4-15.2-7.4s-11.8,2.2-16.3,6.7c-4.5,4.5-6.7,11.3-7.9,20.2h45V363.2z M661,405.9v-43.3
		c0-18-6.1-27-18-27c-6.7,0-12.4,2.8-16.8,7.9c-4.5,5-6.7,11.8-6.7,19.6v42.7h-5.6v-74.2h6.1v13.5l0,0c5-10.2,12.9-15.2,24.2-15.2
		c7.4,0,13.5,2.8,17.4,7.9c3.9,5,6.1,12.9,6.1,23.1v45H661V405.9z M716.1,404.8c-3.3,1.7-6.1,2.2-9,2.2c-10.2,0-15.7-6.7-15.7-19.6
		v-50H679v-6.1h12.4v-19.1c1.1-0.6,2.2-0.6,3.3-1.1c1.1-0.6,2.2-0.6,3.3-1.1v21.3h18.5v6.1H698v48.9c0,5,0.6,9,2.2,11.3
		c1.7,2.2,3.9,3.3,7.9,3.3c2.8,0,5.6-1.1,8.5-2.8v6.7H716.1z M731.9,369.5c0,10.2,2.2,18,6.7,23.7c4.5,5.6,10.7,8.5,18.5,8.5
		s15.7-2.8,23.1-9v7.4c-7.4,5.6-15.2,8.5-24.2,8.5s-16.3-3.3-22-10.2c-5.6-6.7-8.5-16.3-8.5-29.2c0-10.7,2.8-19.6,9-27.6
		c5.6-7.4,13.5-11.3,22.6-11.3c8.5,0,15.2,3.3,20.2,9.6c4.5,6.7,6.7,15.2,6.7,26.4v2.8h-52.1V369.5z M776.8,363.2
		c0-8.5-2.2-15.2-5.6-19.6s-8.5-7.4-15.2-7.4c-6.7,0-11.8,2.2-16.3,6.7c-4.5,4.5-6.7,11.3-7.9,20.2h45V363.2z M834.2,339.1
		c-2.2-1.7-4.5-2.2-7.4-2.2c-5.6,0-10.2,2.8-14.1,9c-3.9,6.3-5.6,14.6-5.6,25.9v34.8H801v-74.8h6.1v16.3h0.6
		c1.7-5.6,3.9-10.2,7.9-12.9c3.3-3.3,7.4-4.5,11.8-4.5c2.8,0,5,0.6,6.7,1.1L834.2,339.1L834.2,339.1z"/>
	<g>
		<path fill="#EC008C" d="M637.8,226.5c-11.3-11.3-18.4-26.7-18.4-43.7c0-26.3,16.8-49,40.5-58c-7.1-2.8-14.9-4.3-23.1-4.3
			c-34.8,0-63.5,28.1-63.5,62.4c0,34.2,28.7,62.4,63.5,62.4c0.6,0,1.1,0,1.7,0l1.1,30.3c11.7-11.3,21.4-21.6,29.6-31.9
			C657.1,241.1,646.2,235,637.8,226.5z"/>
		<path fill="#00AEEF" d="M684.4,231.9c-14.2-11.6-23.4-29-23.4-48.6c0.4-27.4,18.4-50.8,43-59.4c-6.5-2.4-13.6-3.6-21-3.6
			c-8.1,0-15.9,1.5-23.1,4.3c-23.5,9.2-40.5,31.7-40.5,58c0,17,7.1,32.4,18.4,43.7c8.5,8.5,19.3,14.6,31.6,17.3
			c4.5,1,8.9,1.5,13.6,1.5c0.6,0,1.3,0,1.8,0l1,30.3c11.3-10.6,20.6-20.5,28.5-30.1C703,243.5,692.7,238.8,684.4,231.9z"/>
		<path fill="#52B446" d="M726,228c-11.7-11.4-18.9-27.1-18.9-44.7c0-26.4,17.1-49.6,41.1-58.7c-7.2-2.8-15-4.2-23.1-4.2
			c-7.4,0-14.5,1.3-21,3.6c-24.6,8.6-42.6,31.9-43,59.4c0,19.6,9,37.2,23.4,48.6c8.5,6.8,18.7,11.6,29.9,13.4
			c3.5,0.6,7.1,0.8,10.9,0.8c0.6,0,1.1,0,1.7,0l1.1,30.9c12.1-11.4,22-21.9,30.2-32.2C745.8,242.5,734.6,236.5,726,228z"/>
		<path fill="#FBED23" d="M771.1,120.4c-8.1,0-15.9,1.5-23,4.2c-24.1,9.2-41.1,32.3-41.1,58.7c0,17.5,7.2,33.3,18.9,44.7
			c8.6,8.5,19.8,14.5,32.2,17c4.2,0.8,8.5,1.3,13.1,1.3c0.6,0,1.1,0,1.7,0l1.1,30.9c28-24.9,48.6-44.8,56.8-70.9
			c2.9-7.1,4.5-14.9,4.5-23.1C835.3,148.6,806.6,120.4,771.1,120.4z"/>
	</g>
	<path fill="#FFFFFF" d="M71.8,122.7h14.6L151,275h-21.3l-19.1-45H48.8l-18,45H10L71.8,122.7L71.8,122.7z M102.2,210.9l-23.7-54.6
		l-21.3,54.6H102.2L102.2,210.9z M167.4,275V123.8h35.9c14.6,0,26.4,3.9,34.8,11.3c8.4,7.4,12.9,18,12.9,30.9c0,9-2.2,16.3-6.1,23.1
		c-3.9,6.1-10.2,11.3-18,14.6c4.5,3.3,9,7.4,13.5,12.9c4.5,5.6,10.7,15.2,18.5,28.7c5,8.5,9,15.2,11.8,19.6l7.9,10.7H254l-5.6-10.7
		c0-0.6-0.6-1.1-1.1-1.7l-4.5-6.1l-6.1-11.3L230,234c-4.5-6.1-8.5-11.3-11.8-14.6c-3.3-3.9-6.7-6.1-9.6-7.9
		c-2.9-1.8-7.9-2.2-14.6-2.2h-5.6v65.8h-21V275z M194.4,142.3h-6.1V190h7.9c10.7,0,17.4-1.1,21.3-2.8c3.9-1.7,6.7-4.5,9-8.5
		c2.4-4,3.3-7.9,3.3-12.9c0-4.5-1.1-9-3.3-12.9c-2.2-3.9-5.6-6.7-10.2-8.5C211.8,142.9,204.6,142.3,194.4,142.3L194.4,142.3z
		 M419.8,240.2v23.7c-15.2,9-32.6,12.9-52.9,12.9c-16.3,0-29.8-3.3-41.1-10.2c-11.3-6.7-20.2-16.3-27-28.1
		c-6.7-11.8-9.6-24.8-9.6-38.8c0-22,7.4-40.5,22.6-55.7s33.7-22.6,55.7-22.6c15.2,0,32,3.9,50.5,12.4v23.1
		c-16.8-10.2-33.7-15.2-49.4-15.2c-16.3,0-30.3,5.6-41.1,16.3c-10.7,10.7-16.3,24.8-16.3,41.1c0,16.8,5.6,30.3,16.3,41.1
		s24.8,16.3,41.1,16.3C386.1,256.4,402.9,250.9,419.8,240.2L419.8,240.2z M445.1,123.8h82.1v19.1H466v46.1h59V208h-59v47.2h62.9
		v19.1h-83.8V123.8z"/>
</g>
</svg>
