<?xml version="1.0" encoding="utf-8"?>
<!-- Generator: Adobe Illustrator 18.1.1, SVG Export Plug-In . SVG Version: 6.00 Build 0)  -->
<svg version="1.1" id="Capa_1" xmlns="http://www.w3.org/2000/svg" xmlns:xlink="http://www.w3.org/1999/xlink" x="0px" y="0px"
	 viewBox="-78 170.2 438.5 496" enable-background="new -78 170.2 438.5 496" xml:space="preserve">
<g>
	<path fill="none" stroke="#8E8E9C" stroke-width="30" stroke-miterlimit="10" d="M244.6,244.2c-28.5-28.6-63-42.8-103.4-42.8
		c-40.4,0-74.8,14.3-103.4,42.8c-28.5,28.5-42.8,63-42.8,103.4c0,20.7,3.1,37.8,9.4,51.1l104.2,221c2.9,6.3,7.3,11.2,13.3,14.8
		c6,3.6,12.4,5.4,19.3,5.4c6.9,0,13.3-1.8,19.3-5.4c6-3.6,10.5-8.6,13.6-14.8l103.9-221c6.3-13.3,9.4-30.4,9.4-51.1
		C287.4,307.2,273.2,272.7,244.6,244.2z M192.9,399.2c-14.3,14.3-31.5,21.4-51.7,21.4s-37.4-7.1-51.7-21.4
		c-14.3-14.3-21.4-31.5-21.4-51.7c0-20.2,7.1-37.4,21.4-51.7c14.3-14.3,31.5-21.4,51.7-21.4c20.2,0,37.4,7.1,51.7,21.4
		c14.3,14.3,21.4,31.5,21.4,51.7C214.4,367.7,207.2,384.9,192.9,399.2z"/>
</g>
</svg>
