<?xml version="1.0" encoding="utf-8"?>
<!-- Generator: Adobe Illustrator 18.1.1, SVG Export Plug-In . SVG Version: 6.00 Build 0)  -->
<svg version="1.1" id="Capa_1" xmlns="http://www.w3.org/2000/svg" xmlns:xlink="http://www.w3.org/1999/xlink" x="0px" y="0px"
	 viewBox="0 0 595.3 841.9" enable-background="new 0 0 595.3 841.9" xml:space="preserve">
<g>
	<path fill="none" stroke="#FFFFFF" stroke-width="46" stroke-miterlimit="10" d="M470.4,116.4c-47.6-47.8-105.3-71.5-172.8-71.5
		s-124.9,23.9-172.8,71.5c-47.6,47.6-71.5,105.3-71.5,172.8c0,34.6,5.2,63.2,15.8,85.4L243.2,744c4.8,10.6,12.2,18.7,22.3,24.7
		c10,6,20.7,9,32.3,9c11.6,0,22.3-3,32.3-9c10-6,17.6-14.4,22.8-24.7l173.6-369.3c10.6-22.3,15.8-50.8,15.8-85.4
		C541.9,221.8,518.2,164.1,470.4,116.4z M384,375.4c-23.9,23.9-52.7,35.8-86.4,35.8s-62.5-11.8-86.4-35.8
		c-23.9-23.9-35.8-52.7-35.8-86.4s11.8-62.5,35.8-86.4c23.9-23.9,52.7-35.8,86.4-35.8s62.5,11.8,86.4,35.8
		c23.9,23.9,35.8,52.7,35.8,86.4C419.9,322.9,407.9,351.6,384,375.4z"/>
</g>
</svg>
