<?xml version="1.0" encoding="utf-8"?>
<!-- Generator: Adobe Illustrator 18.1.1, SVG Export Plug-In . SVG Version: 6.00 Build 0)  -->
<svg version="1.1" id="Слой_1" xmlns="http://www.w3.org/2000/svg" xmlns:xlink="http://www.w3.org/1999/xlink" x="0px" y="0px"
	 viewBox="0 0 53.5 45.5" enable-background="new 0 0 53.5 45.5" xml:space="preserve">
<g>
	<path fill="none" stroke="#2BACE2" stroke-width="1.5" stroke-miterlimit="10" d="M23.6,26c4.3,4.2,9.2,8.3,11.2,6.3
		c2.8-2.8,4.5-5.2,10.7-0.3c6.2,4.9,1.5,8.2-1.2,11c-3.1,3.1-14.8,0.2-26.3-11.2C6.4,20.3,3.4,8.6,6.5,5.5c2.7-2.7,6-7.5,10.9-1.3
		S20,12,17.2,14.8C15.2,16.8,19.3,21.7,23.6,26z M29,10.6c1.6,0.3,4,0.8,6.5,3.4c2.6,2.6,3.1,5,3.4,6.5 M27.6,1.6
		c4.3-0.7,9.6,1.3,14.3,6s6.7,10,6,14.3"/>
</g>
</svg>
